<svg xmlns="http://www.w3.org/2000/svg" xmlns:xlink="http://www.w3.org/1999/xlink" viewBox="0 0 714.32 554.53"><defs><style>.cls-1,.cls-115{fill:none;}.cls-2{isolation:isolate;}.cls-3{clip-path:url(#clip-path);}.cls-132,.cls-133,.cls-4{fill-opacity:0.4;}.cls-4{fill:url(#무제_그라디언트_14);}.cls-5{fill:#e2e2e2;}.cls-6{fill:#f6f4f4;}.cls-7{fill:#6d6d6d;}.cls-8{fill:#6e6e6e;}.cls-9{fill:#6f6f6f;}.cls-10{fill:#707070;}.cls-11{fill:#717171;}.cls-12{fill:#727272;}.cls-13{fill:#737373;}.cls-14{fill:#747474;}.cls-15{fill:#757575;}.cls-16{fill:#767676;}.cls-17{fill:#777;}.cls-18{fill:#787878;}.cls-19{fill:#797979;}.cls-20{fill:#7a7a7a;}.cls-21{fill:#7b7b7b;}.cls-22{fill:#7c7c7c;}.cls-23{fill:#7d7d7d;}.cls-24{fill:#7e7e7e;}.cls-25{fill:#7f7f7f;}.cls-26{fill:gray;}.cls-27{fill:#818181;}.cls-28{fill:#828282;}.cls-29{fill:#838383;}.cls-30{fill:#848484;}.cls-31{fill:#858585;}.cls-32{fill:#868686;}.cls-33{fill:#878787;}.cls-34{fill:#888;}.cls-35{fill:#898989;}.cls-36{fill:#8a8a8a;}.cls-37{fill:#8b8b8b;}.cls-38{fill:#8c8c8c;}.cls-39{fill:#8d8d8d;}.cls-40{fill:#8e8e8e;}.cls-41{fill:#8f8f8f;}.cls-42{fill:#909090;}.cls-43{fill:#919191;}.cls-44{fill:#929292;}.cls-45{fill:#939393;}.cls-46{fill:#949494;}.cls-47{fill:#959595;}.cls-48{fill:#969696;}.cls-49{fill:#979797;}.cls-50{fill:#989898;}.cls-51{fill:#999;}.cls-52{fill:#9a9a9a;}.cls-53{fill:#9b9b9b;}.cls-54{fill:#9c9c9c;}.cls-55{fill:#9d9d9d;}.cls-56{fill:#9e9e9e;}.cls-57{fill:#9f9f9f;}.cls-58{fill:#a0a0a0;}.cls-59{fill:#a1a1a1;}.cls-60{fill:#a2a2a2;}.cls-61{fill:#a3a3a3;}.cls-62{fill:#a4a4a4;}.cls-63{fill:#a5a5a5;}.cls-64{fill:#a6a6a6;}.cls-65{fill:#a7a7a7;}.cls-66{fill:#a8a8a8;}.cls-67{fill:#a9a9a9;}.cls-68{fill:#aaa;}.cls-69{fill:#ababab;}.cls-70{fill:#acacac;}.cls-71{fill:#adadad;}.cls-72{fill:#aeaeae;}.cls-73{fill:#afafaf;}.cls-74{fill:#b0b0b0;}.cls-75{fill:#b1b1b1;}.cls-76{fill:#b2b2b2;}.cls-77{fill:#b3b3b3;}.cls-78{fill:#b4b4b4;}.cls-79{fill:#b5b5b5;}.cls-80{fill:#b6b6b6;}.cls-81{fill:#b7b7b7;}.cls-82{fill:#b8b8b8;}.cls-83{fill:#b9b9b9;}.cls-84{fill:#bababa;}.cls-85{fill:#bbb;}.cls-86{fill:#bcbcbc;}.cls-87{fill:#bdbdbd;}.cls-88{fill:#bebebe;}.cls-89{fill:#bfbfbf;}.cls-90{fill:silver;}.cls-91{fill:#c1c1c1;}.cls-92{fill:#c2c2c2;}.cls-93{fill:#c3c3c3;}.cls-94{fill:#c4c4c4;}.cls-95{fill:#c5c5c5;}.cls-96{fill:#c6c6c6;}.cls-97{fill:#c7c7c7;}.cls-98{fill:#c8c8c8;}.cls-99{fill:#c9c9c9;}.cls-100{fill:#cacaca;}.cls-101{fill:#cbcbcb;}.cls-102{fill:#ccc;}.cls-103{fill:#cdcdcd;}.cls-104{fill:#cecece;}.cls-105{fill:#cfcfcf;}.cls-106{fill:#d0d0d0;}.cls-107{fill:#d1d1d1;}.cls-108{fill:#d2d2d2;}.cls-109{fill:#d3d3d3;}.cls-110{fill:#d4d4d4;}.cls-111{fill:#d5d5d5;}.cls-112{fill:#d6d6d6;}.cls-113{fill:url(#linear-gradient);}.cls-114{fill:#1e1e1e;}.cls-115{stroke:#262626;stroke-width:0.07px;}.cls-115,.cls-130{stroke-miterlimit:10;}.cls-116{fill:#fff;}.cls-117{clip-path:url(#clip-path-2);}.cls-118{fill:#6fc3e1;}.cls-119{clip-path:url(#clip-path-3);}.cls-120{fill-opacity:0.23;fill:url(#무제_그라디언트_70);}.cls-121{clip-path:url(#clip-path-4);}.cls-122{fill:#dde0e4;}.cls-123{fill:#808a97;}.cls-124{fill:#aed08e;}.cls-125{fill:#e38376;}.cls-126{fill:#ebca82;}.cls-127{fill:#f2dea8;}.cls-128{fill:#c2c7cf;}.cls-129,.cls-130{fill:#2b2d35;}.cls-130{stroke:#2b2d35;stroke-width:2px;}.cls-131{clip-path:url(#clip-path-5);}.cls-132{fill:url(#무제_그라디언트_14-2);}.cls-133{fill:url(#무제_그라디언트_14-3);}.cls-134{fill:#f0b297;}.cls-135{fill:#d1785e;}.cls-136{fill:#f2f2f2;mix-blend-mode:soft-light;}.cls-137{fill:#1a1a1a;}.cls-138{fill:#a33939;}.cls-139{fill:#29253b;}.cls-140{fill:#232033;}.cls-141{fill:#cfd7e9;}.cls-142{fill:#869ac9;}.cls-143{fill:#e7ebf4;}.cls-144{fill:#2c1e1c;}.cls-145{fill:#5f2c29;}.cls-146{fill:#f0b59c;}.cls-147{fill:#5d2a46;}.cls-148{fill:#7a3440;}.cls-149{fill:#c69c6d;}.cls-150{fill:#7f3b37;}</style><clipPath id="clip-path" transform="translate(-502 -139.02)"><polygon class="cls-1" points="904.05 542.86 1110.34 562.77 1164.65 559.25 1162.14 510.05 977.11 482.73 899.33 498.48 904.05 542.86"/></clipPath><linearGradient id="무제_그라디언트_14" x1="896.65" y1="547.22" x2="1139.99" y2="547.22" gradientTransform="matrix(0.99, -0.12, 1.56, 1.03, -859.03, 114.08)" gradientUnits="userSpaceOnUse"><stop offset="0" stop-color="#fff"/><stop offset="0.08" stop-color="#f8f8f8" stop-opacity="0.95"/><stop offset="0.28" stop-color="#e8e8e8" stop-opacity="0.82"/><stop offset="0.48" stop-color="#dcdcdc" stop-opacity="0.73"/><stop offset="0.67" stop-color="#d3d3d3" stop-opacity="0.66"/><stop offset="0.84" stop-color="#cecece" stop-opacity="0.61"/><stop offset="1" stop-color="#ccc" stop-opacity="0.6"/></linearGradient><linearGradient id="linear-gradient" x1="932.45" y1="568.84" x2="932.45" y2="154.12" gradientUnits="userSpaceOnUse"><stop offset="0" stop-color="#eaeaeb"/><stop offset="0.51" stop-color="#aaaaae"/><stop offset="0.66" stop-color="#c6c6c9"/><stop offset="1" stop-color="#fff"/></linearGradient><clipPath id="clip-path-2" transform="translate(-502 -139.02)"><polygon class="cls-1" points="1183.51 553.01 672.13 516.98 672.13 230.88 1183.51 172.77 1183.51 553.01"/></clipPath><clipPath id="clip-path-3" transform="translate(-502 -139.02)"><path class="cls-1" d="M1156.35,564.23,650.5,523.9c-13.17-1-23.71-9.48-23.71-18.84V224.71c0-9.36,10.54-17.93,23.71-19.15l505.85-46.85c21.72-2,39.63,6.29,39.63,18.57V545.14C1196,557.43,1178.07,566,1156.35,564.23Z"/></clipPath><linearGradient id="무제_그라디언트_70" x1="906.9" y1="397.01" x2="906.9" y2="139.02" gradientUnits="userSpaceOnUse"><stop offset="0" stop-color="#fff"/><stop offset="0.18" stop-color="#d5d5d5"/><stop offset="0.75" stop-color="#555354"/><stop offset="1" stop-color="#221f20"/></linearGradient><clipPath id="clip-path-4" transform="translate(-502 -139.02)"><path class="cls-1" d="M1057,559.26,781.35,529.8c-9.3-1-16.74-9.16-16.74-18.25V343.3a17.4,17.4,0,0,1,16.74-17.14L1057,314.9c13.58-.55,24.75,8.08,24.75,19.28V541.62C1081.76,552.82,1070.59,560.71,1057,559.26Z"/></clipPath><clipPath id="clip-path-5" transform="translate(-502 -139.02)"><rect class="cls-1" x="492.05" y="601.26" width="271.58" height="76.18"/></clipPath><linearGradient id="무제_그라디언트_14-2" x1="700.69" y1="657.87" x2="703.1" y2="588.79" gradientTransform="matrix(0.65, 0.13, -0.12, 0.57, 307.79, 217.19)" xlink:href="#무제_그라디언트_14"/><linearGradient id="무제_그라디언트_14-3" x1="578.11" y1="668.94" x2="580.52" y2="599.87" gradientTransform="matrix(0.89, 0.18, -0.27, 0.68, 220.15, 134.41)" xlink:href="#무제_그라디언트_14"/></defs><g class="cls-2"><g id="layer_1"><g id="컴퓨터_그림자"><g class="cls-3"><ellipse class="cls-4" cx="1004.32" cy="553.07" rx="131.47" ry="37.31" transform="translate(-554.74 -30) rotate(-6.05)"/></g></g><g id="컴퓨터"><polygon class="cls-5" points="336.3 402.66 469.59 413.06 482.07 481.12 325.15 463.23 336.3 402.66"/><path class="cls-6" d="M1005.1,626.2l-21-6.06L827.16,602.26l-17.27,1.31a1,1,0,0,0-.91,1.06v3.67a1,1,0,0,0,.8,1l195.45,23.32a.86.86,0,0,0,1-.85v-4.1A1.55,1.55,0,0,0,1005.1,626.2Z" transform="translate(-502 -139.02)"/><polygon class="cls-7" points="497.67 485.61 482.07 481.12 403.61 472.18 325.15 463.23 312.27 464.21 404.97 474.91 497.67 485.61"/><path class="cls-8" d="M814.23,603.24l1.34.16,3.26.42,1.2.14L907,614l2.18.25,89.29,10.31,1.32.14-3.6-1.07-1.72-.51-1.8-.52-8.46-2.42-78.53-8.95-78.51-9-11.46.85Z" transform="translate(-502 -139.02)"/><path class="cls-9" d="M814.19,603.24l1.32.18,3.23.44,1.19.15,87,10,2.18.25,89.36,10.33,1.32.13-3.56-1.1-1.72-.52-1.8-.52-8.47-2.41-78.61-9-78.55-9-11.47.82Z" transform="translate(-502 -139.02)"/><path class="cls-10" d="M814.15,603.25s1.29.16,1.29.18l3.2.47,1.19.16,87.09,10.07,2.18.25,89.45,10.33,1.31.13-3.52-1.13s-1.7-.52-1.71-.53l-1.81-.52-8.48-2.39-78.68-9-78.6-9-11.48.81Z" transform="translate(-502 -139.02)"/><path class="cls-11" d="M814.11,603.25s1.27.17,1.27.19l3.17.5s1.17.17,1.18.17l87.17,10.08,2.19.25,89.52,10.35s1.31.13,1.31.11l-3.49-1.16s-1.68-.52-1.7-.53l-1.81-.52-8.49-2.38-78.75-9-78.66-9-11.48.79Z" transform="translate(-502 -139.02)"/><path class="cls-12" d="M814.06,603.25s1.26.17,1.26.2l3.13.54s1.17.17,1.19.17l87.24,10.09,2.19.25,89.61,10.36s1.3.14,1.3.11l-3.45-1.19s-1.67-.53-1.7-.54l-1.81-.52-8.5-2.37-78.83-9-78.7-9-11.49.76Z" transform="translate(-502 -139.02)"/><path class="cls-13" d="M814,603.26s1.24.17,1.24.2l3.1.57s1.15.18,1.18.18l87.33,10.1,2.19.26,89.68,10.37s1.3.13,1.3.1l-3.42-1.22s-1.65-.54-1.69-.55l-1.81-.52-8.51-2.36-78.9-9-78.76-9-11.49.75Z" transform="translate(-502 -139.02)"/><path class="cls-14" d="M814,603.26s1.21.18,1.21.21l3.08.6s1.14.19,1.17.19l87.41,10.12,2.19.25L998.81,625s1.3.12,1.3.08l-3.39-1.24s-1.64-.55-1.69-.56l-1.81-.52-8.52-2.35-79-9-78.8-9-11.5.72Z" transform="translate(-502 -139.02)"/><path class="cls-15" d="M813.94,603.26a11.8,11.8,0,0,1,1.19.23l3,.62s1.14.2,1.17.21l87.49,10.12,2.2.25,89.84,10.4a11.92,11.92,0,0,0,1.3.08l-3.35-1.27s-1.64-.56-1.69-.57l-1.81-.52-8.52-2.34-79.06-9-78.85-9-11.51.7Z" transform="translate(-502 -139.02)"/><path class="cls-16" d="M813.9,603.26s1.17.19,1.17.24l3,.66s1.13.2,1.17.21l87.56,10.13,2.2.26,89.93,10.41a11.65,11.65,0,0,0,1.29.07l-3.32-1.31s-1.62-.56-1.67-.57l-1.82-.53-8.53-2.32-79.13-9-78.91-9-11.51.68Z" transform="translate(-502 -139.02)"/><path class="cls-17" d="M813.86,603.27c-.05,0,1.14.19,1.14.24l3,.69a9.94,9.94,0,0,0,1.16.22l87.64,10.15,2.2.25,90,10.43a11.57,11.57,0,0,0,1.29,0L997,624a15.58,15.58,0,0,0-1.67-.58l-1.82-.53-8.54-2.3-79.21-9-78.95-9-11.52.66Z" transform="translate(-502 -139.02)"/><path class="cls-18" d="M813.82,603.27a9.64,9.64,0,0,1,1.12.25l2.95.72a9.92,9.92,0,0,0,1.16.23l87.73,10.16,2.2.26,90.09,10.43a8,8,0,0,0,1.28,0L997.1,624a14.67,14.67,0,0,0-1.66-.59l-1.82-.53-8.55-2.29-79.28-9.05-79-9-11.52.63Z" transform="translate(-502 -139.02)"/><path class="cls-19" d="M813.72,603.23c-.05,0,1.11.2,1.11.26l2.92.75a7.78,7.78,0,0,0,1.15.24l87.81,10.17,2.2.26,90.17,10.45a8.15,8.15,0,0,0,1.29,0L997.15,624a14,14,0,0,0-1.66-.61l-1.82-.52-8.56-2.28-79.36-9.06-79-9-11.53.61Z" transform="translate(-502 -139.02)"/><path class="cls-20" d="M813.68,603.23a9.45,9.45,0,0,1,1.08.27l2.89.78a6.68,6.68,0,0,0,1.15.24l87.89,10.19,2.2.26,90.25,10.46a8,8,0,0,0,1.28,0L997.24,624a12.29,12.29,0,0,0-1.65-.61l-1.82-.53-8.57-2.26-79.43-9.08-79.11-9-11.54.59Z" transform="translate(-502 -139.02)"/><path class="cls-21" d="M813.63,603.23a8.14,8.14,0,0,1,1.07.28l2.85.81a7.5,7.5,0,0,0,1.15.25l88,10.2,2.21.26L999.2,625.5a6.94,6.94,0,0,0,1.28,0l-3.15-1.45a13.66,13.66,0,0,0-1.64-.62l-1.83-.52-8.58-2.26-79.5-9.08-79.16-9-11.54.57Z" transform="translate(-502 -139.02)"/><path class="cls-22" d="M813.59,603.23a6.83,6.83,0,0,1,1,.28l2.82.85a5.7,5.7,0,0,0,1.15.25l88,10.22,2.21.25,90.41,10.49a6.11,6.11,0,0,0,1.28,0l-3.11-1.47a10.3,10.3,0,0,0-1.65-.63L994,623l-8.59-2.24-79.58-9.09-79.2-9-11.55.55Z" transform="translate(-502 -139.02)"/><path class="cls-23" d="M813.54,603.23c-.08,0,1,.2,1,.29l2.8.88a6.16,6.16,0,0,0,1.14.26l88.12,10.23,2.21.25,90.49,10.5a6.12,6.12,0,0,0,1.28,0l-3.08-1.51a10.18,10.18,0,0,0-1.64-.64l-1.82-.52-8.6-2.23-79.66-9.11-79.25-9-11.56.53Z" transform="translate(-502 -139.02)"/><path class="cls-24" d="M813.5,603.22c-.09,0,1,.21,1,.31l2.77.9a4.76,4.76,0,0,0,1.14.27l88.2,10.24,2.22.26,90.57,10.52a5.84,5.84,0,0,0,1.26,0l-3-1.54a10.06,10.06,0,0,0-1.63-.64l-1.83-.53-8.61-2.22-79.73-9.11-79.3-9.06-11.56.5Z" transform="translate(-502 -139.02)"/><path class="cls-25" d="M813.45,603.22c-.09,0,1,.22,1,.31l2.73.94a5.34,5.34,0,0,0,1.13.28L906.58,615l2.22.26,90.65,10.53a5.22,5.22,0,0,0,1.26,0l-3-1.56a8.84,8.84,0,0,0-1.62-.66l-1.83-.53-8.62-2.2-79.81-9.12-79.35-9.07-11.57.48Z" transform="translate(-502 -139.02)"/><path class="cls-26" d="M813.41,603.22c-.1,0,1,.22,1,.32l2.7,1a5.19,5.19,0,0,0,1.13.28l88.36,10.27,2.23.26,90.73,10.54a4.72,4.72,0,0,0,1.26,0l-3-1.59a8.56,8.56,0,0,0-1.62-.67l-1.83-.52-8.62-2.2-79.88-9.13-79.4-9.07-11.58.46Z" transform="translate(-502 -139.02)"/><path class="cls-27" d="M813.36,603.22c-.1,0,.93.22.93.32l2.67,1c0,.1,1,.29,1.13.3l88.44,10.28,2.23.25,90.81,10.56a4.69,4.69,0,0,0,1.26,0l-2.94-1.62a7.73,7.73,0,0,0-1.62-.67l-1.83-.53-8.64-2.18-79.95-9.14-79.45-9.09-11.58.45Z" transform="translate(-502 -139.02)"/><path class="cls-28" d="M813.32,603.21c-.11,0,.91.23.91.34l2.64,1c0,.1,1,.29,1.12.3l88.52,10.29,2.23.26L999.63,626c.11,0,1.26.06,1.26,0L998,624.3a8.2,8.2,0,0,0-1.61-.68l-1.83-.53-8.65-2.16-80-9.16-79.5-9.09-11.59.42Z" transform="translate(-502 -139.02)"/><path class="cls-29" d="M813.27,603.21c-.11,0,.89.23.89.35l2.61,1.06c0,.1,1,.3,1.12.31l88.6,10.3,2.23.26,91,10.58c.11,0,1.25,0,1.25-.06l-2.87-1.67a7.09,7.09,0,0,0-1.6-.7l-1.84-.52L986,621l-80.11-9.16-79.55-9.1-11.59.4Z" transform="translate(-502 -139.02)"/><path class="cls-30" d="M813.23,603.21c-.12,0,.86.23.86.35l2.58,1.09c0,.11,1,.31,1.12.32l88.68,10.32,2.23.26,91,10.59c.12,0,1.25.05,1.25-.07l-2.84-1.7a6.82,6.82,0,0,0-1.59-.7l-1.84-.53L986.06,621l-80.17-9.18-79.6-9.1-11.6.38Z" transform="translate(-502 -139.02)"/><path class="cls-31" d="M813.18,603.2c-.12,0,.85.24.85.37l2.54,1.12c0,.11,1,.31,1.12.33l88.76,10.32,2.23.26,91.13,10.61c.13,0,1.25,0,1.25-.08l-2.8-1.73a6.35,6.35,0,0,0-1.6-.71l-1.83-.53L986.15,621l-80.25-9.18-79.65-9.11-11.61.35Z" transform="translate(-502 -139.02)"/><path class="cls-32" d="M813.14,603.2c-.13,0,.82.24.82.37l2.52,1.16c0,.11,1,.32,1.1.33l88.84,10.34,2.24.26,91.21,10.62c.13,0,1.25,0,1.25-.09l-2.77-1.76a6.48,6.48,0,0,0-1.59-.72l-1.84-.53-8.68-2.11-80.33-9.2-79.7-9.11-11.61.33Z" transform="translate(-502 -139.02)"/><path class="cls-33" d="M813.09,603.2c-.13,0,.8.24.8.38l2.49,1.18c0,.12,1,.33,1.1.34l88.92,10.36,2.24.26,91.29,10.63c.14,0,1.25,0,1.25-.09l-2.74-1.8a6.06,6.06,0,0,0-1.58-.72l-1.84-.53-8.69-2.11-80.41-9.2-79.75-9.13-11.62.32Z" transform="translate(-502 -139.02)"/><path class="cls-34" d="M813.05,603.19c-.14,0,.78.25.78.39l2.45,1.22c0,.12,1,.33,1.1.35l89,10.36,2.24.26L1000,626.42c.14,0,1.23,0,1.23-.1l-2.7-1.83c0-.16-1.41-.68-1.57-.73l-1.84-.53-8.71-2.09-80.48-9.22-79.8-9.13-11.62.29Z" transform="translate(-502 -139.02)"/><path class="cls-35" d="M813,603.19c-.14,0,.76.25.76.4l2.42,1.25c0,.12,1,.34,1.1.35l89.08,10.38,2.24.26,91.46,10.66c.14,0,1.23,0,1.23-.11l-2.67-1.85c0-.17-1.39-.7-1.56-.75l-1.85-.53-8.71-2.08L906,612l-79.85-9.14-11.63.27Z" transform="translate(-502 -139.02)"/><path class="cls-36" d="M813,603.19c-.15,0,.74.24.74.4l2.39,1.28c0,.13,1,.35,1.09.36l89.16,10.4,2.24.26,91.54,10.67c.15,0,1.23,0,1.23-.12l-2.63-1.88c0-.18-1.39-.71-1.57-.76l-1.84-.53-8.72-2.06L906,612l-79.9-9.14-11.64.25Z" transform="translate(-502 -139.02)"/><path class="cls-37" d="M812.91,603.18c-.15,0,.72.25.72.42l2.36,1.31c0,.13,1,.35,1.09.37l89.24,10.4,2.24.26,91.62,10.69c.16,0,1.23,0,1.23-.13l-2.6-1.91c0-.18-1.37-.71-1.56-.76l-1.84-.54-8.73-2L906,612l-80-9.16-11.64.23Z" transform="translate(-502 -139.02)"/><path class="cls-38" d="M812.87,603.18c-.16,0,.69.25.69.42l2.33,1.34c0,.14,1,.37,1.09.38l89.31,10.42,2.25.26,91.7,10.7c.16,0,1.23,0,1.23-.14l-2.57-1.94c0-.19-1.36-.72-1.55-.77l-1.85-.53-8.74-2.05L906,612l-80-9.16-11.65.21Z" transform="translate(-502 -139.02)"/><path class="cls-39" d="M812.82,603.18c-.16,0,.68.25.68.43l2.29,1.37c0,.14,1,.37,1.09.39l89.39,10.42,2.26.27,91.77,10.7c.17,0,1.23,0,1.23-.14l-2.54-2c0-.19-1.34-.72-1.54-.78l-1.85-.53-8.75-2L906,612.05l-80-9.17-11.66.18Z" transform="translate(-502 -139.02)"/><path class="cls-40" d="M812.78,603.17c-.17,0,.65.26.65.44l2.27,1.4c0,.15.94.38,1.07.4l89.48,10.44,2.26.26,91.85,10.72c.18,0,1.22,0,1.22-.16l-2.49-2c0-.2-1.34-.73-1.54-.79l-1.85-.53-8.76-2L906,612.07l-80.1-9.17-11.66.16Z" transform="translate(-502 -139.02)"/><path class="cls-41" d="M812.73,603.17c-.17,0,.63.26.63.44l2.24,1.44c0,.15.93.38,1.07.4l89.56,10.46,2.26.26,91.93,10.73c.18,0,1.22,0,1.22-.17l-2.46-2c0-.2-1.33-.74-1.54-.8l-1.85-.53-8.77-2-81-9.28-80.15-9.19-11.67.15Z" transform="translate(-502 -139.02)"/><path class="cls-42" d="M812.69,603.16c-.18,0,.61.27.61.46l2.2,1.46c0,.16.93.4,1.07.42L906.21,616l2.26.27,92,10.74c.18,0,1.21,0,1.21-.18l-2.43-2c0-.21-1.31-.74-1.53-.8l-1.85-.54-8.78-2L906,612.12l-80.19-9.19-11.68.12Z" transform="translate(-502 -139.02)"/><path class="cls-43" d="M812.64,603.16c-.18,0,.59.27.59.46l2.18,1.5c0,.16.91.4,1.06.42L906.19,616l2.26.26,92.1,10.76c.19,0,1.21,0,1.21-.19l-2.39-2.08c0-.21-1.31-.75-1.53-.81l-1.85-.54-8.79-2-81.15-9.31L825.8,603l-11.68.1Z" transform="translate(-502 -139.02)"/><path class="cls-44" d="M812.6,603.16c-.19,0,.57.27.57.47l2.14,1.53c0,.16.91.4,1.06.42l89.8,10.49,2.26.27,92.18,10.77c.19,0,1.21,0,1.21-.2l-2.36-2.11c0-.22-1.29-.75-1.52-.82l-1.86-.53-8.79-2-81.23-9.31-80.3-9.2-11.69.07Z" transform="translate(-502 -139.02)"/><path class="cls-45" d="M812.55,603.15c-.19,0,.55.28.55.48l2.11,1.56c0,.17.9.42,1.06.44l89.87,10.5,2.27.27,92.26,10.78c.2,0,1.21,0,1.21-.21l-2.33-2.13c0-.23-1.28-.77-1.51-.84l-1.86-.53-8.81-2-81.3-9.32L825.72,603,814,603Z" transform="translate(-502 -139.02)"/><path class="cls-46" d="M812.51,603.15c-.2,0,.52.28.52.49l2.08,1.59c0,.17.9.42,1.06.44l90,10.52,2.27.26,92.34,10.8c.21,0,1.21,0,1.21-.22l-2.3-2.16c0-.24-1.26-.78-1.5-.85l-1.86-.53-8.82-1.94-81.38-9.33L825.69,603,814,603Z" transform="translate(-502 -139.02)"/><path class="cls-47" d="M812.46,603.14c-.2,0,.51.28.51.5l2,1.62c0,.18.88.43,1.05.45l90,10.53,2.28.27,92.41,10.81c.21,0,1.2,0,1.2-.23l-2.25-2.19c0-.24-1.26-.78-1.51-.85l-1.85-.54-8.83-1.93-81.45-9.34L825.65,603H813.94Z" transform="translate(-502 -139.02)"/><path class="cls-48" d="M812.42,603.14c-.2,0,.48.29.48.51l2,1.65c0,.19.88.44,1.05.46l90.11,10.54,2.28.27,92.5,10.82c.21,0,1.19,0,1.19-.23l-2.22-2.23c0-.25-1.24-.78-1.5-.86l-1.86-.53-8.83-1.92-81.53-9.35L825.61,603H813.9Z" transform="translate(-502 -139.02)"/><path class="cls-49" d="M812.37,603.15c-.2,0,.47.29.47.52l2,1.68c0,.19.87.44,1,.46l90.19,10.56,2.28.27,92.58,10.83c.22,0,1.19,0,1.19-.24L999.92,625c0-.25-1.23-.79-1.49-.86l-1.86-.54-8.84-1.9-81.61-9.36-80.54-9.24-11.72,0Z" transform="translate(-502 -139.02)"/><path class="cls-50" d="M812.33,603.16c-.21,0,.44.29.44.52l2,1.71c0,.2.86.46,1,.48L906,616.44l2.28.26L1001,627.55c.22,0,1.19,0,1.19-.25L1000,625c0-.26-1.22-.81-1.49-.88l-1.86-.54-8.86-1.89-81.67-9.37-80.6-9.25L813.82,603Z" transform="translate(-502 -139.02)"/><path class="cls-51" d="M812.29,603.16c-.22,0,.41.3.41.54l1.93,1.74c0,.2.85.46,1,.48L906,616.5l2.28.27L1001,627.63c.23,0,1.19,0,1.19-.26l-2.12-2.31c0-.27-1.21-.81-1.48-.89l-1.87-.54-8.86-1.87-81.75-9.38-80.65-9.26-11.73-.07Z" transform="translate(-502 -139.02)"/><path class="cls-52" d="M812.24,603.17c-.22,0,.4.3.4.54l1.89,1.78c0,.2.85.46,1,.48L906,616.57l2.28.27,92.82,10.87c.24,0,1.19-.05,1.19-.27l-2.09-2.34c0-.27-1.19-.82-1.47-.9l-1.87-.53L988,621.8l-81.83-9.39-80.69-9.26-11.74-.09Z" transform="translate(-502 -139.02)"/><path class="cls-53" d="M812.2,603.18c-.23,0,.37.3.37.55l1.87,1.8c0,.21.83.48,1,.5L906,616.64l2.28.26,92.91,10.89c.24,0,1.18,0,1.18-.28l-2.05-2.37c0-.28-1.19-.82-1.47-.9L997,623.7l-8.88-1.85-81.91-9.4-80.74-9.27-11.74-.12Z" transform="translate(-502 -139.02)"/><path class="cls-54" d="M812.15,603.18c-.23,0,.36.31.36.56l1.83,1.84c0,.21.83.48,1,.5L906,616.7l2.29.27,93,10.9c.24,0,1.18,0,1.18-.29l-2-2.4c0-.28-1.17-.83-1.46-.91l-1.87-.54-8.89-1.84-82-9.41-80.8-9.27-11.75-.14Z" transform="translate(-502 -139.02)"/><path class="cls-55" d="M812.11,603.19c-.24,0,.33.31.33.57l1.8,1.86c0,.22.82.49,1,.52l90.68,10.63,2.29.27L1001.29,628c.25,0,1.18-.06,1.18-.3l-2-2.43c0-.29-1.16-.83-1.45-.92l-1.87-.54-8.91-1.82-82-9.42-80.84-9.29-11.76-.15Z" transform="translate(-502 -139.02)"/><path class="cls-56" d="M812.07,603.2c-.25,0,.31.31.31.57l1.77,1.9c0,.22.81.5,1,.52l90.76,10.65,2.29.26L1001.35,628c.26,0,1.18-.06,1.18-.31l-1.95-2.46c0-.29-1.15-.84-1.46-.93l-1.87-.53L988.34,622l-82.13-9.43-80.89-9.29-11.76-.18Z" transform="translate(-502 -139.02)"/><path class="cls-57" d="M812,603.2c-.25,0,.29.32.29.59l1.74,1.93c0,.22.8.5,1,.52L905.9,616.9l2.29.27,93.22,10.94c.27,0,1.18-.07,1.18-.32l-1.92-2.48c0-.31-1.14-.85-1.45-.94l-1.87-.54-8.92-1.8-82.2-9.44-80.94-9.3-11.77-.2Z" transform="translate(-502 -139.02)"/><path class="cls-58" d="M812,603.21c-.26,0,.27.32.27.59l1.7,2c0,.23.8.51,1,.54L905.88,617l2.29.27,93.31,11c.26,0,1.16-.07,1.16-.33l-1.88-2.51c0-.31-1.12-.86-1.44-1l-1.87-.54-8.93-1.79-82.28-9.45-81-9.3-11.78-.22Z" transform="translate(-502 -139.02)"/><path class="cls-59" d="M811.93,603.22c-.25,0,.25.31.25.6l1.68,2c0,.23.79.52,1,.54l91,10.68,2.3.28,93.38,11c.27,0,1.16-.08,1.16-.34l-1.84-2.54c0-.32-1.12-.86-1.44-1l-1.87-.54-8.94-1.77-82.35-9.46-81-9.31-11.78-.25Z" transform="translate(-502 -139.02)"/><path class="cls-59" d="M811.89,603.22c-.26,0,.23.32.23.61l1.64,2c0,.23.78.52,1,.55l91.07,10.69,2.3.27,93.46,11c.28,0,1.16-.08,1.16-.35l-1.81-2.57c0-.32-1.1-.87-1.43-1l-1.87-.55-8.95-1.76-82.43-9.47-81.09-9.32-11.79-.26Z" transform="translate(-502 -139.02)"/><path class="cls-60" d="M811.85,603.23c-.27,0,.2.32.2.62l1.62,2c0,.25.77.53,1,.56l91.15,10.71,2.3.27,93.54,11c.29,0,1.16-.09,1.16-.36l-1.77-2.6c0-.32-1.09-.88-1.43-1l-1.88-.54-9-1.75-82.51-9.48-81.14-9.33-11.79-.29Z" transform="translate(-502 -139.02)"/><path class="cls-61" d="M811.8,603.24c-.27,0,.19.32.19.62l1.58,2.09c0,.25.77.54,1,.56l91.23,10.72,2.3.28,93.63,11c.29,0,1.15-.09,1.15-.37l-1.74-2.63c0-.33-1.08-.88-1.42-1l-1.88-.54-9-1.74-82.58-9.49-81.19-9.33-11.8-.31Z" transform="translate(-502 -139.02)"/><path class="cls-62" d="M811.76,603.24c-.28,0,.16.33.16.64l1.56,2.11c0,.26.75.55,1,.58l91.31,10.73,2.31.27,93.7,11c.29,0,1.15-.1,1.15-.38l-1.71-2.65c0-.34-1.06-.9-1.41-1l-1.88-.54-9-1.72-82.65-9.5-81.24-9.34-11.81-.33Z" transform="translate(-502 -139.02)"/><path class="cls-63" d="M811.72,603.25c-.28,0,.14.33.14.64l1.52,2.15c0,.26.75.55,1,.58l91.39,10.75,2.31.27,93.78,11c.3,0,1.15-.1,1.15-.39l-1.67-2.68c0-.35-1.06-.9-1.41-1l-1.88-.55-9-1.71-82.72-9.51L825,603.49l-11.81-.36Z" transform="translate(-502 -139.02)"/><path class="cls-64" d="M811.68,603.26c-.29,0,.11.33.11.65l1.49,2.18c0,.26.75.56,1,.59l91.47,10.75,2.31.28,93.87,11c.3,0,1.14-.11,1.14-.4l-1.64-2.71c0-.35-1-.91-1.4-1l-1.88-.54-9-1.7-82.8-9.52L825,603.51l-11.82-.37Z" transform="translate(-502 -139.02)"/><path class="cls-65" d="M811.63,603.26c-.29,0,.1.34.1.66l1.46,2.21c0,.27.73.57,1,.6l91.55,10.77,2.32.27L1002,628.83c.31,0,1.15-.11,1.15-.41l-1.61-2.74c0-.36-1-.91-1.4-1l-1.88-.54-9-1.69-82.88-9.53L825,603.54l-11.82-.39Z" transform="translate(-502 -139.02)"/><path class="cls-66" d="M811.59,603.27c-.3,0,.08.34.08.67l1.42,2.24c0,.27.73.57,1,.6l91.63,10.79,2.32.27,94,11.07c.32,0,1.15-.11,1.15-.42l-1.58-2.77c0-.36-1-.92-1.39-1l-1.88-.54-9-1.67-83-9.54-81.44-9.37-11.83-.42Z" transform="translate(-502 -139.02)"/><path class="cls-67" d="M811.55,603.27c-.31,0,.05.35.05.68l1.4,2.27c0,.28.72.59,1,.62l91.71,10.79,2.32.28L1002.11,629c.32,0,1.14-.12,1.14-.43l-1.54-2.8c0-.37-1-.92-1.39-1l-1.88-.55-9-1.66-83-9.55-81.49-9.37-11.83-.44Z" transform="translate(-502 -139.02)"/><path class="cls-68" d="M811.51,603.28c-.31,0,0,.35,0,.69l1.36,2.3c0,.28.71.59,1,.62l91.79,10.81L908,618l94.18,11.1c.33,0,1.14-.12,1.14-.44l-1.51-2.83c0-.37-1-.93-1.38-1l-1.89-.54-9-1.65L906.4,613l-81.54-9.38L813,603.17Z" transform="translate(-502 -139.02)"/><path class="cls-69" d="M811.46,603.29c-.31,0,0,.35,0,.69l1.33,2.34c0,.28.7.59,1,.62l91.86,10.83L908,618l94.27,11.11c.33,0,1.13-.13,1.13-.45l-1.47-2.85c0-.38-1-1-1.38-1.06l-1.89-.54-9-1.64L906.41,613l-81.58-9.39L813,603.17Z" transform="translate(-502 -139.02)"/><path class="cls-70" d="M811.42,603.29c-.32,0,0,.36,0,.71l1.31,2.36c0,.29.69.61,1,.64l91.94,10.83,2.33.28,94.35,11.12c.34,0,1.13-.13,1.13-.46l-1.44-2.88c0-.39-1-.95-1.36-1.06l-1.9-.55-9.05-1.62-83.25-9.58-81.64-9.4-11.85-.5Z" transform="translate(-502 -139.02)"/><path class="cls-71" d="M811.38,603.3c-.32,0,0,.36,0,.71l1.27,2.4c0,.29.69.61,1,.64l92,10.85,2.33.27,94.43,11.14c.34,0,1.12-.14,1.12-.47l-1.4-2.91c0-.39-1-1-1.36-1.07l-1.9-.55-9.06-1.61-83.32-9.59-81.69-9.4-11.86-.52Z" transform="translate(-502 -139.02)"/><path class="cls-72" d="M811.34,603.31c-.33,0-.05.36-.05.72l1.24,2.42c0,.3.68.62,1,.66L905.59,618l2.33.27,94.51,11.15c.35,0,1.12-.14,1.12-.47l-1.36-2.95c0-.4-1-1-1.36-1.08l-1.9-.55-9.06-1.59-83.41-9.6-81.74-9.41-11.86-.55Z" transform="translate(-502 -139.02)"/><path class="cls-73" d="M811.3,603.31c-.34,0-.08.37-.08.73l1.21,2.46c0,.3.67.63,1,.66L905.57,618l2.34.28,94.59,11.16c.35,0,1.12-.15,1.12-.48l-1.34-3c0-.4-.93-1-1.35-1.09l-1.89-.54L990,622.79l-83.48-9.61-81.79-9.42-11.87-.56Z" transform="translate(-502 -139.02)"/><path class="cls-74" d="M811.26,603.32c-.34,0-.1.37-.1.74l1.18,2.49c0,.3.66.63.95.66l92.26,10.89,2.34.28,94.67,11.16c.36.05,1.12-.14,1.12-.48l-1.3-3c0-.41-.93-1-1.35-1.09l-1.89-.55-9.09-1.57-83.55-9.63-81.84-9.42-11.88-.58Z" transform="translate(-502 -139.02)"/><path class="cls-75" d="M811.22,603.33c-.35,0-.12.37-.12.74l1.15,2.52c0,.31.65.64.94.68l92.35,10.9,2.34.27,94.75,11.18c.36,0,1.11-.15,1.11-.49l-1.26-3c0-.42-.92-1-1.34-1.11l-1.9-.55-9.1-1.56-83.63-9.63-81.89-9.43-11.88-.61Z" transform="translate(-502 -139.02)"/><path class="cls-76" d="M811.18,603.33c-.35,0-.14.38-.14.76l1.12,2.55c0,.32.64.65.94.68l92.42,10.91,2.34.28,94.83,11.19c.37,0,1.11-.15,1.11-.5l-1.23-3.06c0-.43-.9-1-1.33-1.12l-1.9-.55-9.11-1.54-83.7-9.65-81.94-9.43-11.89-.63Z" transform="translate(-502 -139.02)"/><path class="cls-77" d="M811.14,603.34c-.36,0-.16.38-.16.76l1.08,2.59c0,.32.64.65.94.69l92.5,10.92,2.35.28,94.91,11.2c.37.05,1.11-.16,1.11-.51l-1.2-3.09c0-.43-.89-1-1.33-1.13l-1.9-.54L990.32,623l-83.77-9.65-82-9.44-11.9-.66Z" transform="translate(-502 -139.02)"/><path class="cls-78" d="M811.1,603.35c-.36,0-.18.38-.18.77l1.05,2.61c0,.33.63.66.93.7l92.59,10.94,2.35.27,95,11.22c.37,0,1.1-.16,1.1-.52l-1.16-3.12c0-.44-.88-1-1.32-1.13l-1.91-.55L990.42,623l-83.86-9.67-82-9.45-11.91-.67Z" transform="translate(-502 -139.02)"/><path class="cls-79" d="M811.06,603.35c-.36,0-.2.39-.2.78l1,2.65c0,.33.62.67.93.7l92.66,10.95,2.35.28,95.07,11.23c.38,0,1.11-.16,1.11-.53l-1.13-3.15c0-.44-.87-1-1.32-1.14l-1.9-.55-9.14-1.51-83.93-9.67-82.08-9.46-11.92-.69Z" transform="translate(-502 -139.02)"/><path class="cls-80" d="M811,603.36c-.37,0-.23.39-.23.79l1,2.67c0,.34.61.68.92.72l92.75,11,2.35.28L1003,630c.39.05,1.1-.17,1.1-.54L1003,626.3c0-.44-.86-1-1.32-1.15l-1.9-.55-9.15-1.49-84-9.69L824.46,604l-11.91-.72Z" transform="translate(-502 -139.02)"/><path class="cls-81" d="M811,603.37c-.37,0-.24.39-.24.79l1,2.71c0,.34.6.68.92.72l92.82,11,2.36.27L1003,630.1c.39,0,1.09-.17,1.09-.55l-1.06-3.21c0-.45-.84-1-1.3-1.16l-1.91-.54-9.15-1.49-84.08-9.69L824.43,604l-11.92-.74Z" transform="translate(-502 -139.02)"/><path class="cls-82" d="M810.94,603.37c-.37,0-.26.4-.26.81l.93,2.74c0,.34.6.69.92.72l92.9,11,2.36.28,95.31,11.27c.39.05,1.09-.18,1.09-.56l-1-3.23c0-.46-.83-1-1.3-1.17l-1.9-.55-9.17-1.47-84.15-9.71L824.4,604l-11.93-.76Z" transform="translate(-502 -139.02)"/><path class="cls-83" d="M810.91,603.38c-.39,0-.29.4-.29.81l.9,2.77c0,.35.59.7.91.74l93,11,2.36.28,95.4,11.28c.4,0,1.09-.18,1.09-.57l-1-3.26c0-.47-.81-1-1.29-1.18l-1.91-.55-9.17-1.46-84.23-9.71L824.37,604l-11.93-.78Z" transform="translate(-502 -139.02)"/><path class="cls-84" d="M810.87,603.39c-.39,0-.31.4-.31.82l.87,2.8c0,.35.58.7.91.74l93.06,11,2.36.27,95.48,11.3c.4,0,1.08-.19,1.08-.58l-1-3.29c0-.47-.8-1.05-1.28-1.19l-1.92-.55L991,623.29l-84.3-9.73-82.34-9.49-11.94-.8Z" transform="translate(-502 -139.02)"/><path class="cls-85" d="M810.83,603.39c-.39,0-.33.41-.33.83l.84,2.83c0,.36.57.72.91.76l93.14,11,2.36.28,95.56,11.31c.41.05,1.08-.19,1.08-.59l-.92-3.32c0-.48-.8-1-1.29-1.19l-1.91-.56-9.19-1.43L906.7,613.6l-82.38-9.5-12-.82Z" transform="translate(-502 -139.02)"/><path class="cls-86" d="M810.8,603.4c-.4,0-.36.41-.36.84l.81,2.86c0,.36.57.72.9.76l93.22,11,2.37.28,95.64,11.32c.41,0,1.08-.2,1.08-.6l-.89-3.35c0-.48-.79-1.06-1.28-1.2l-1.91-.55-9.21-1.43-84.45-9.74-82.43-9.5-12-.85Z" transform="translate(-502 -139.02)"/><path class="cls-87" d="M810.76,603.41c-.4,0-.37.41-.37.84l.77,2.9c0,.36.56.72.9.76L905.36,619l2.37.29,95.72,11.33c.42,0,1.07-.2,1.07-.61l-.85-3.38c0-.49-.77-1.07-1.27-1.21l-1.92-.55-9.21-1.41-84.53-9.75-82.48-9.51-12-.87Z" transform="translate(-502 -139.02)"/><path class="cls-88" d="M810.73,603.41c-.41,0-.4.41-.4.86l.75,2.92c0,.37.55.74.89.78L905.35,619l2.37.28,95.8,11.35c.43.05,1.07-.21,1.07-.62l-.82-3.4c0-.5-.76-1.08-1.27-1.23l-1.91-.55-9.22-1.4-84.6-9.76-82.54-9.52-12-.88Z" transform="translate(-502 -139.02)"/><path class="cls-89" d="M810.69,603.42c-.41,0-.42.41-.42.86l.72,3c0,.37.54.74.89.78l93.46,11.08,2.37.28,95.88,11.36c.43,0,1.07-.21,1.07-.63l-.79-3.43c0-.51-.74-1.09-1.26-1.23l-1.92-.56-9.22-1.38-84.68-9.77-82.59-9.53-12-.91Z" transform="translate(-502 -139.02)"/><path class="cls-90" d="M810.66,603.43c-.42,0-.44.41-.44.87l.68,3c0,.38.54.75.89.8l93.54,11.08,2.38.29,95.95,11.37c.44,0,1.07-.22,1.07-.64l-.75-3.46c0-.51-.74-1.09-1.26-1.24l-1.92-.55-9.24-1.38-84.75-9.78-82.63-9.53-12-.93Z" transform="translate(-502 -139.02)"/><path class="cls-91" d="M810.62,603.43c-.42,0-.46.42-.46.88l.65,3c0,.38.53.76.89.8l93.62,11.1,2.38.28,96,11.39c.45.05,1.07-.22,1.07-.65l-.72-3.49c0-.51-.73-1.1-1.25-1.25l-1.92-.55-9.25-1.36-84.83-9.79-82.68-9.54-12-1Z" transform="translate(-502 -139.02)"/><path class="cls-92" d="M810.59,603.44c-.43,0-.49.42-.49.89l.63,3c0,.38.51.76.88.8L905.3,619.3l2.39.28L1003.8,631c.45,0,1.07-.23,1.07-.66l-.69-3.52c0-.52-.71-1.1-1.24-1.26L1001,625l-9.25-1.35-84.9-9.8-82.74-9.55-12-1Z" transform="translate(-502 -139.02)"/><path class="cls-93" d="M810.55,603.45c-.43,0-.5.42-.5.89l.59,3.08c0,.4.51.77.87.82l93.78,11.12,2.39.29,96.19,11.41c.46.05,1.06-.23,1.06-.67l-.65-3.55c0-.52-.7-1.11-1.23-1.26l-1.93-.56-9.26-1.33-85-9.81-82.79-9.56-12-1Z" transform="translate(-502 -139.02)"/><path class="cls-94" d="M810.52,603.45c-.44,0-.53.43-.53.91l.56,3.11c0,.4.5.78.87.82l93.86,11.14,2.39.28,96.27,11.43c.46.05,1.06-.23,1.06-.68l-.61-3.58c0-.53-.69-1.11-1.24-1.27l-1.92-.55L992,623.73l-85.05-9.82-82.83-9.56-12-1Z" transform="translate(-502 -139.02)"/><path class="cls-95" d="M810.48,603.46c-.44,0-.54.43-.54.91l.52,3.15c0,.4.5.78.87.83l93.94,11.15,2.39.28L1004,631.22c.46,0,1.05-.24,1.05-.69l-.58-3.6c0-.54-.68-1.13-1.23-1.29l-1.93-.55-9.28-1.31L906.92,614,824,604.38l-12-1Z" transform="translate(-502 -139.02)"/><path class="cls-96" d="M810.45,603.46c-.45,0-.57.44-.57.93l.5,3.17a1,1,0,0,0,.86.84l94,11.16,2.39.29,96.44,11.45c.47.06,1-.24,1-.7l-.55-3.63c0-.55-.66-1.13-1.22-1.3l-1.93-.55-9.29-1.3L907,614,824,604.41l-12-1.06Z" transform="translate(-502 -139.02)"/><path class="cls-97" d="M810.41,603.47c-.45,0-.59.44-.59.93l.47,3.21a1,1,0,0,0,.86.84l94.1,11.18,2.39.28,96.52,11.47c.47.06,1.05-.25,1.05-.71l-.52-3.66c0-.55-.65-1.14-1.21-1.3l-1.93-.56-9.31-1.28L907,614l-83-9.59-12-1.08Z" transform="translate(-502 -139.02)"/><path class="cls-98" d="M810.38,603.48c-.46,0-.61.44-.61.94l.43,3.23a1,1,0,0,0,.86.86l94.18,11.19,2.39.28,96.6,11.48c.48.06,1-.25,1-.72l-.48-3.69a1.68,1.68,0,0,0-1.21-1.31l-1.93-.56-9.32-1.27L907,614.05l-83-9.59-12-1.1Z" transform="translate(-502 -139.02)"/><path class="cls-99" d="M810.34,603.48c-.46,0-.63.45-.63,1l.4,3.26a1,1,0,0,0,.86.86l94.25,11.2,2.4.29,96.68,11.49c.49.06,1-.26,1-.73l-.44-3.72a1.67,1.67,0,0,0-1.21-1.32l-1.93-.55L992.44,624,907,614.09l-83.08-9.6-12-1.12Z" transform="translate(-502 -139.02)"/><path class="cls-100" d="M810.31,603.49c-.47,0-.66.45-.66,1l.38,3.3a1,1,0,0,0,.85.86l94.33,11.22,2.4.29,96.76,11.5a.88.88,0,0,0,1-.74l-.41-3.75a1.65,1.65,0,0,0-1.2-1.32l-1.93-.56L992.54,624,907,614.12l-83.13-9.6-12-1.15Z" transform="translate(-502 -139.02)"/><path class="cls-101" d="M810.27,603.5c-.47,0-.67.45-.67,1l.34,3.32a1,1,0,0,0,.85.88L905.2,619.9l2.41.28,96.83,11.52a.89.89,0,0,0,1-.75l-.38-3.77a1.63,1.63,0,0,0-1.19-1.34l-1.93-.56-9.35-1.23-85.57-9.89-83.18-9.61-12-1.17Z" transform="translate(-502 -139.02)"/><path class="cls-102" d="M810.24,603.5c-.48,0-.7.46-.7,1l.31,3.36a1,1,0,0,0,.84.88L905.19,620l2.41.29,96.91,11.53a.88.88,0,0,0,1-.76l-.34-3.8a1.64,1.64,0,0,0-1.19-1.35l-1.94-.56-9.35-1.22-85.65-9.9-83.23-9.62-12.06-1.18Z" transform="translate(-502 -139.02)"/><path class="cls-103" d="M810.2,603.51c-.48,0-.72.46-.72,1l.28,3.38a1,1,0,0,0,.84.9L905.18,620l2.41.29,97,11.54a.88.88,0,0,0,1-.77l-.31-3.83a1.63,1.63,0,0,0-1.18-1.36l-1.94-.55-9.36-1.21-85.73-9.91-83.28-9.63-12.06-1.21Z" transform="translate(-502 -139.02)"/><path class="cls-104" d="M810.17,603.52c-.49,0-.74.46-.74,1l.25,3.42a1,1,0,0,0,.83.9l94.66,11.27,2.41.28,97.08,11.56a.88.88,0,0,0,1-.77l-.28-3.87a1.6,1.6,0,0,0-1.18-1.36l-1.93-.56-9.37-1.2-85.81-9.92-83.33-9.63-12.06-1.23Z" transform="translate(-502 -139.02)"/><path class="cls-105" d="M810.18,603.55c-.5,0-.76.46-.76,1l.21,3.45a1,1,0,0,0,.84.91l94.73,11.28,2.41.28L1004.77,632a.87.87,0,0,0,1-.78l-.24-3.89a1.62,1.62,0,0,0-1.17-1.38l-1.94-.56-9.38-1.18-85.88-9.93-83.38-9.64-12.07-1.25Z" transform="translate(-502 -139.02)"/><path class="cls-106" d="M810.13,603.55a.91.91,0,0,0-.78,1l.19,3.48a1,1,0,0,0,.83.92l94.81,11.29,2.42.29,97.24,11.58a.87.87,0,0,0,1-.79l-.21-3.93a1.59,1.59,0,0,0-1.16-1.38l-1.94-.56-9.39-1.17-85.95-9.94-83.43-9.64-12.08-1.28Z" transform="translate(-502 -139.02)"/><path class="cls-107" d="M810.09,603.55a.93.93,0,0,0-.8,1l.16,3.52a1,1,0,0,0,.82.92l94.89,11.3,2.42.29,97.32,11.59a.86.86,0,0,0,1-.8l-.17-3.95a1.59,1.59,0,0,0-1.16-1.39l-1.94-.56-9.4-1.15-86-10-83.48-9.66-12.08-1.3Z" transform="translate(-502 -139.02)"/><path class="cls-108" d="M810.05,603.56a.94.94,0,0,0-.82,1l.12,3.55a1,1,0,0,0,.82.93l95,11.32,2.42.28,97.4,11.61a.86.86,0,0,0,1-.81l-.13-4a1.58,1.58,0,0,0-1.16-1.4l-1.94-.56-9.41-1.14-86.1-10-83.53-9.67-12.09-1.31Z" transform="translate(-502 -139.02)"/><path class="cls-109" d="M810,603.56a1,1,0,0,0-.84,1l.09,3.57a1,1,0,0,0,.82.94l95,11.33,2.42.29L1005,632.35a.87.87,0,0,0,1-.82l-.11-4a1.56,1.56,0,0,0-1.15-1.41l-1.94-.56-9.42-1.13-86.17-10-83.58-9.67-12.1-1.34Z" transform="translate(-502 -139.02)"/><path class="cls-110" d="M810,603.56a1,1,0,0,0-.87,1.05l.07,3.6a1,1,0,0,0,.81.95l95.13,11.34,2.43.29,97.56,11.63a.86.86,0,0,0,1-.83l-.07-4a1.56,1.56,0,0,0-1.14-1.42l-1.95-.56-9.43-1.12-86.25-10-83.63-9.68-12.1-1.36Z" transform="translate(-502 -139.02)"/><path class="cls-111" d="M809.93,603.57a1,1,0,0,0-.89,1l0,3.64a1,1,0,0,0,.81,1l95.21,11.35,2.43.29,97.64,11.65a.86.86,0,0,0,1-.84l0-4.07a1.56,1.56,0,0,0-1.14-1.42l-2-.56-9.44-1.11-86.32-10-83.68-9.68-12.11-1.38Z" transform="translate(-502 -139.02)"/><path class="cls-112" d="M1005.1,626.2l-2-.56-95.85-11.1-95.84-11.09-1.57.12a1,1,0,0,0-.91,1.06v3.67a1,1,0,0,0,.8,1l97.73,11.66,97.72,11.66a.86.86,0,0,0,1-.85v-4.1A1.55,1.55,0,0,0,1005.1,626.2Z" transform="translate(-502 -139.02)"/><path class="cls-113" d="M1182.66,154.28,673.22,216.76c-6.29.77-11.36,7.84-11.36,15.79V513.68c0,8,5.07,14.8,11.36,15.29l509.44,39.8c11.2.88,20.37-7.11,20.37-17.85V171.23C1203,160.49,1193.86,152.91,1182.66,154.28Z" transform="translate(-502 -139.02)"/><path class="cls-114" d="M1179.57,158,674.69,219.08c-6.25.76-11.28,7.71-11.28,15.55v276.9c0,7.84,5,14.57,11.28,15.05l504.88,38.63c11.07.85,20.13-7,20.13-17.56v-373C1199.7,164.09,1190.64,156.64,1179.57,158Z" transform="translate(-502 -139.02)"/><path class="cls-115" d="M902.54,199.76a5.63,5.63,0,0,1-4.84,5.49,4.26,4.26,0,0,1-4.81-4.37,5.63,5.63,0,0,1,4.81-5.49A4.26,4.26,0,0,1,902.54,199.76Z" transform="translate(-502 -139.02)"/><polygon class="cls-116" points="681.51 413.99 170.13 377.95 170.13 91.86 681.51 33.75 681.51 413.99"/><g class="cls-117"><path class="cls-118" d="M1158.74,564.26,637,522.93c-13.56-1.08-24.41-9.71-24.41-19.29V216.73c0-9.58,10.85-18.36,24.41-19.62l521.72-48.67c22.45-2.1,41,6.39,41,19V544.69C1199.7,557.29,1181.19,566,1158.74,564.26Z" transform="translate(-502 -139.02)"/><g class="cls-119"><path class="cls-120" d="M1190.41,293.19C1141.52,375.41,918.18,397.63,873,397c-183.45-2.59-275.49-68.53-275.49-128s168.58-88.08,352-108.72C1198.19,98.74,1258.15,179.26,1190.41,293.19Z" transform="translate(-502 -139.02)"/></g><g class="cls-121"><g id="hippo"><path id="path_1" class="cls-122" d="M1010.51,620.5c-.06,9.57-1.88,21.32-3.69,31.74l-2.77-.47c-10.59-1.79-19.08,4-19.09,12.92v0c0,5.39,3.27,8.53,6.31,11.95L985,675.51v-5.39c0-6-5.61-11.76-12.48-13s-12.28,2.6-12.28,8.46v5.31l-6.07-1.13c-6.26-1.16-11.46-7.21-12-12.71-1-10.55-4.34-28-11.82-48.93l.65-1.42a41.33,41.33,0,0,0,11.17,3.16c24.18,3.58,22.7-12.6,36.55-10.7C987,600.35,998.21,613.79,1010.51,620.5Z" transform="translate(-502 -139.02)"/><path id="path_2" class="cls-122" d="M924.14,602.37,857.76,647c-2,1.32-7.94,3.48-10.56,3l-10.41-1.93c0-8.09-6.9-15.86-15.32-17.34s-15,3.8-15,11.72a29.91,29.91,0,0,1-4.54-1.22c2.22-2,4.54-3.8,4.54-8.34,0-7.91-6.59-15.44-14.65-16.81h0c4.67-3.78,37.06-25.49,44.25-35.23,7.68,1.95,12.75-4.44,21.74-3.24,10.71,1.44,10.71,11.43,21.58,13,11,1.55,16.61-12.92,27.9-6.32,6.62,3.82,9.44,12,16.9,18.12Z" transform="translate(-502 -139.02)"/><path id="패스_3"
                                                                                                                                                                                                                                                                                                                                                                                                                                                                                                                                                                                                                                                                                                                                                                                                                                                                                                                                                                                                                                                                                                                                                       class="cls-122" d="M1009.86,417.27l.65.12c6.52,11.14,6.52,17.79,6.52,22.13,0,25.22-22.28,45-50.78,45.82l.07.32c16.13,4.56,48.88,10.37,70.58,14v1.78c0,9.21,9,17.44,20.32,18.39h.06v16.91c0,6.08-5.83,10.69-13.1,10l-.54-.06c-13.55-1.85-27.4-4.77-39.59-9.41l-1.29.36c7.75,15.38,7.75,27.64,7.75,27.64a56.05,56.05,0,0,1-25.49,4l-.06-1.46c0-32.34-24.76-56-54.63-58.43-28.59-2.37-50.72,15.66-51,45.46a23.76,23.76,0,0,1-5.46,0c-16.12-1.89-21.42-7.44-21.42-7.44a120,120,0,0,0,2-14.46l-2-.36c-28.41-8.26-46.89-16.79-57.68-22.7l1.85-2.06s9.78-18.15-14.34-29.44c14.39,5.65,19.24-3,19.24-8.24v-1.14c9.05,3.77,22.92,9.36,35.26,13.12,21,6.41,48.05,3.33,48.05,3.33-32.38-7.18-48.05-27.75-48.05-57.06,0-1.66.11-3.37.26-5A44.84,44.84,0,0,1,841.51,408c8.51-17.38,27.44-28.67,48.86-28.72,2,0,3.79,0,5.58.14,11.63.44,20.15,2.59,27.43,6.37a60.81,60.81,0,0,1,12.83,9.06l1.83.59c6.2-16.45,26.72-25.56,46.22-20.1,15.57,4.35,26.26,16.91,26.25,31.07a63.66,63.66,0,0,1-.65,10.83Z" transform="translate(-502 -139.02)"/><g id="그룹_29"><path id="패스_4"
                                                                                                                                                                                                                                                                                                                                                                                                                                                                                                                                                                                                                                                                                                                                                                                                                                                                                                                                                                                                                                         class="cls-123" d="M1057.28,502.94v16.9c-11.3-.92-20.36-9.13-20.38-18.34v-1.83C1048.86,501.65,1057.28,502.94,1057.28,502.94Z" transform="translate(-502 -139.02)"/><path id="패스_5"
                                                                                                                                                                                                                                                                                                                                                                                                                                                                                                                                                                                                                                                                                                                                                                                                                                                                                                                                                                                                                                                                                                                                                                                                                  class="cls-123" d="M801.53,468.88V470c0,5.24-4.85,13.89-19.24,8.24,2.73-11.77,9.48-13.58,9.48-13.58S795.61,466.42,801.53,468.88Z" transform="translate(-502 -139.02)"/><path id="패스_6"
                                                                                                                                                                                                                                                                                                                                                                                                                                                                                                                                                                                                                                                                                                                                                                                                                                                                                                                                                                                                                                                                                                                                                                                                                                                                                                                                                                                               class="cls-123" d="M782.29,478.26c24.12,11.29,14.34,29.44,14.34,29.44l-1.85,2.06a91.59,91.59,0,0,1-12.64-8.06C780.62,491.19,781.05,483.67,782.29,478.26Z" transform="translate(-502 -139.02)"/><path id="패스_7"
                                                                                                                                                                                                                                                                                                                                                                                                                                                                                                                                                                                                                                                                                                                                                                                                                                                                                                                                                                                                                                                                                                                                                                                                                                                                                                                                                                                                                                                                                                                                                                                                    class="cls-123" d="M791.77,616.08c8.06,1.34,14.68,8.86,14.69,16.77v0c0,4.54-2.32,6.36-4.54,8.34h0C787,635.78,787.32,619.67,791.77,616.08Z" transform="translate(-502 -139.02)"/><path id="패스_8"
                                                                                                                                                                                                                                                                                                                                                                                                                                                                                                                                                                                                                                                                                                                                                                                                                                                                                                                                                                                                                                                                                                                                                                                                                                                                                                                                                                                                                                                                                                                                                                                                                                                                                                                                                                                          class="cls-123" d="M836.79,648.07l-30.33-5.62c0-7.92,6.68-13.17,15-11.72S836.79,640,836.79,648.07Z" transform="translate(-502 -139.02)"/><path id="패스_9"
                                                                                                                                                                                                                                                                                                                                                                                                                                                                                                                                                                                                                                                                                                                                                                                                                                                                                                                                                                                                                                                                                                                                                                                                                                                                                                                                                                                                                                                                                                                                                                                                                                                                                                                                                                                                                                                                                                                                         class="cls-123" d="M1006.75,652.23h.07c-1,5.94-2.07,11.44-2.78,15.9a10.83,10.83,0,0,1-12.77,8.54c-3-3.43-6.31-6.56-6.31-11.95,0-8.92,8.45-14.73,19-13h0Z" transform="translate(-502 -139.02)"/><path id="path_10" class="cls-123" d="M985,670.12v5.39l-24.76-4.59v-5.3c0-5.86,5.47-9.65,12.28-8.46S985,664.17,985,670.12Z" transform="translate(-502 -139.02)"/></g><path id="path_11" class="cls-124" d="M1010.51,620.5c-12.3-6.71-23.48-20.15-31.82-21.3-13.85-1.9-12.37,14.28-36.55,10.7A41.33,41.33,0,0,1,931,606.74a30.43,30.43,0,0,1-6.83-4.37c-7.46-6.13-10.28-14.3-16.9-18.12-11.29-6.6-16.87,7.87-27.9,6.32-10.87-1.53-10.87-11.52-21.58-13-9-1.2-14.06,5.19-21.74,3.24a15.19,15.19,0,0,1-4.37-1.87c-18.68-11.41-20.22-26.77-20.22-26.77,20.22,2.43,41-4.93,41-4.93s5.3,5.55,21.43,7.44a23.67,23.67,0,0,0,5.45,0c13.76-1.09,24.83-11.83,45.15-9.66,23.62,2.52,29.64,13.74,48,21.17A41.72,41.72,0,0,0,985,569.19a56.05,56.05,0,0,0,25.49-4c13.09,12.53,46.77,22.23,46.77,22.23,0,22.54-14.59,30.36-27,35.45-6.7,2.76-13.4,1-19.72-2.42Z" transform="translate(-502 -139.02)"/><path id="path_12"
                                                                                                                                                                                                                                                                                                                                                                                                                                                                                                                                                                                                                                                                                                                                                                                                                                                                                                                                                                                                                                                                         class="cls-125" d="M991.27,440.24v14.61c0,6-5.67,10.5-12.58,10.16s-12.32-5.43-12.37-11.3v-7.35C977,445.24,985.08,443,991.27,440.24Z" transform="translate(-502 -139.02)"/><path id="path_13"
                                                                                                                                                                                                                                                                                                                                                                                                                                                                                                                                                                                                                                                                                                                                                                                                                                                                                                                                                                                                                                                                                                                                                                                                                                                         class="cls-126" d="M985,567.73l.06,1.46a41.72,41.72,0,0,1-12.54-2.92c-18.35-7.43-24.37-18.65-48-21.17-20.32-2.17-31.39,8.57-45.15,9.66.27-29.8,22.4-47.83,51-45.46C960.2,511.78,985,535.39,985,567.73Z" transform="translate(-502 -139.02)"/><path id="타원_1"
                                                                                                                                                                                                                                                                                                                                                                                                                                                                                                                                                                                                                                                                                                                                                                                                                                                                                                                                                                                                                                                                                                                                                                                                                                                                                                                                                                                                                                                                                                            class="cls-127" d="M972.48,389.83c6.87,0,12.48,4.88,12.48,10.84s-5.61,10.67-12.48,10.55-12.28-5-12.28-10.84S965.67,389.8,972.48,389.83Z" transform="translate(-502 -139.02)"/><path id="path_14"
                                                                                                                                                                                                                                                                                                                                                                                                                                                                                                                                                                                                                                                                                                                                                                                                                                                                                                                                                                                                                                                                                                                                                                                                                                                                                                                                                                                                                                                                                                                                                                                                                                                                                                class="cls-128" d="M907.63,353.65c9.48,0,17.07,7,16.86,15.58s-.41,15.55-.41,15.55l-.7,1c-7.28-3.78-15.8-5.93-27.43-6.37v-.15S891,372,890.37,369.18C888.37,361,898.31,353.62,907.63,353.65Z" transform="translate(-502 -139.02)"/><path id="path_15"
                                                                                                                                                                                                                                                                                                                                                                                                                                                                                                                                                                                                                                                                                                                                                                                                                                                                                                                                                                                                                                                                                                                                                                                                                                                                                                                                                                                                                                                                                                                                                                                                                                                                                                                                                                                                                                                                                                                                       class="cls-128" d="M836.79,423.29v.09L821.47,423c-8.33-.24-15-6.85-15-14.78s6.68-14.29,15-14.22c8.18.07,15,4.76,20,14.08a44.84,44.84,0,0,0-4.46,15.26Z" transform="translate(-502 -139.02)"/><path id="path_16"
                                                                                                                                                                                                                                                                                                                                                                                                                                                                                                                                                                                                                                                                                                                                                                                                                                                                                                                                                                                                                                                                                                                                                                                                                                                                                                                                                                                                                                                                                                                                                                                                                                                                                                                                                                                                                                                                                                                                                                                                                                                                                                                                          class="cls-129" d="M1043.35,552.21l.84.1a20.2,20.2,0,0,0,13.54-3.13,14.24,14.24,0,0,0,6.45-11.79V498.32l-6.22-.94c-.52-.08-38.83-5.9-67.47-11.63,20.26-8.35,33.09-26,33.11-46,0-4.53,0-12.09-6.91-24.06a87.67,87.67,0,0,0,.34-9.16c0-21.25-20.21-38.3-44.49-38.09-15.47.13-29.47,7.37-36.83,18.87a67.43,67.43,0,0,0-5.77-3.94l.38-14.05c.3-11.49-9.87-20.8-22.54-20.8a25.82,25.82,0,0,0-19,8.28c-3.6,4.07-4.95,8.86-3.8,13.52a21,21,0,0,0,1.71,4.11c-18.8,1.13-35.57,10.15-45.55,24.21-6.63-7.58-14.06-9.5-19.66-9.53-11.09-.05-19.94,8.44-19.94,19s8.85,19.34,19.94,19.7l10.18.32c0,23.72,9.66,41.72,28,52.71a95.08,95.08,0,0,1-21.55-3.47c-19.83-6-44.24-16.85-44.48-17l-1.65-.73-1.69.45c-1.87.51-17.94,5.92-12.81,41.85l.28,1.94,1.58,1.31c.8.66,20.13,16.32,69.49,31.18-.34,2.88-.73,5.32-1,7-5.79,1.75-21.32,5.81-36.32,4l-5.48-.64.53,5.32c.07.71,2,17.15,21.24,29.84-8.18,7.7-24.31,19.3-32,24.82-3.55,2.56-6.24,4.5-7.37,5.41-4.28,3.48-5.35,11.94-2.46,19.3,3.2,8.15,10.66,13.91,20.57,15.77l40.74,7.69c4.83.91,12.09-2.21,14.16-3.61L924.75,609l0,0c8.53,24.08,10.85,41.23,11.44,47.49.82,8.54,8.8,16.88,17.9,18.6l37.14,7c10.35,1.95,18.05-4.76,19.19-12.12.47-3.11,1.12-6.74,1.82-10.65,1.67-9.34,3.63-20.48,4.4-30.53a30.51,30.51,0,0,0,3.71.84,25.41,25.41,0,0,0,13.53-1.54c14.83-6,30.26-15.49,30.26-39.77v-4.63l-5.56-1.58c-8.5-2.43-31.23-10.23-41.75-18.82a72.79,72.79,0,0,0-4-17.48,211.41,211.41,0,0,0,30.46,6.4Zm7.08-40.11a13.7,13.7,0,0,1-5.59-5.52l5.59.92Zm-153-149a14.12,14.12,0,0,1,10.11-4.34c6.31,0,11.33,4.69,11.18,10.4l-.24,8.88a74.77,74.77,0,0,0-19.06-3.55,41.09,41.09,0,0,1-3.57-6.5c-.41-1.62.13-3.27,1.58-4.89Zm-75.93,40.5v9.66a13,13,0,0,1,8.61,5.05l-8.61-.22a10.11,10.11,0,0,1-10-9.84,9.68,9.68,0,0,1,10-9.49c5.66.07,10.36,3.16,14.3,9.42-.17.41-.32.83-.48,1.25C830.92,405.64,825.36,403.67,821.47,403.62ZM792.2,470c1,.46,2.41,1.06,4,1.76a5.38,5.38,0,0,1-2.13,2.71,8.19,8.19,0,0,1-5.65.75A13.34,13.34,0,0,1,792.2,470Zm-6.11,15.87c3.24,2.34,5.55,5,6.68,7.9a14.83,14.83,0,0,1,.19,9.66c-3-1.73-5.06-3.13-6.35-4a71.18,71.18,0,0,1-.52-13.53Zm15.79,22.4a24.3,24.3,0,0,0,.06-17.07,25.48,25.48,0,0,0-4.49-7.49,13.53,13.53,0,0,0,8-8.08c8.7,3.58,19.87,7.9,30.12,11.06,21.09,6.53,47.32,4,50.1,3.75l4.72.39V480.65l-5.07-.34C856.67,473.91,842,456,842,428.43c0-24.32,21.31-44.09,48.39-44.05,21.14,0,30.88,4.72,40.82,13.43a33.23,33.23,0,0,0-.87,7.43l11.82.18c0-14.48,13.44-26.25,30.34-26.28,17.28,0,31.57,12.14,31.57,27.2,0,15.21,0,38.18-67.84,35.55v10.45a226,226,0,0,0,24-.1v1.19c0,8.79,8.21,16.38,18.48,17s18.94-6.23,19-15.23V443.53a37,37,0,0,0,12.47-10.15,33.57,33.57,0,0,1,.41,5.91c0,24.16-23,42.38-50.31,40.66-6.05-.37-23.36-3.06-31.59-10.85L920.39,476c13.22,12.63,38.71,14.54,39.81,14.61,1.57.11,3.1.12,4.64.12v.05c15.19,4.34,44.21,9.71,65.78,13.44,1.54,8.92,9.3,16.76,19.82,19.92v12a4.84,4.84,0,0,1-2.16,4,5.84,5.84,0,0,1-4.34,1c-14.36-1.9-26.79-4.81-37.1-8.59a91.31,91.31,0,0,0-17.42-22.12l-8.89,6.88c18.31,17.3,22.37,36.77,23.27,44.16a53.68,53.68,0,0,1-12.74,2.41c-2.27-32.28-27.6-57.1-60.72-59.74-31.48-2.51-53.94,16.52-56.22,45.61h-.23c-8.25-.94-13.11-2.89-15.59-4.2,1.3-7.43,3.74-25.75-.81-38.87l-10,2.26c1.78,5.15,2.2,11.59,2,17.64-21.85-6.51-37.36-13.13-47.63-18.32ZM972.48,451A101.21,101.21,0,0,0,985,448.43v6.13c0,3-2.82,5.25-6.27,5.08s-6.21-2.7-6.21-5.65Zm6,111.7a34.08,34.08,0,0,1-4-1.3,92,92,0,0,1-15.6-8.47c-8.82-5.6-17.82-11.32-34.36-13-13.83-1.44-23.63,2.39-32.16,5.72-2.39.93-4.63,1.76-6.85,2.47,3.37-21.8,20.9-35.68,44.85-33.61,26.21,2.27,46.15,22.26,48.17,48.22ZM794.83,629.44a12.18,12.18,0,0,1-.46-7.8A11.89,11.89,0,0,1,801.53,632a4.7,4.7,0,0,1-1.27,3.42A11.91,11.91,0,0,1,794.83,629.44Zm18,9.39c2.72-4.09,8.81-4.6,13.64-1.11a12.94,12.94,0,0,1,3.77,4.27Zm41.34,3.88a20.2,20.2,0,0,1-6.95,2.37l-6-1.09c-2.82-10.93-14-19.13-24.75-18.34a17.27,17.27,0,0,0-6.25,1.62,24.5,24.5,0,0,0-8.84-11.76l.88-.63C817,604.42,832,593.54,838.69,586.1a25.7,25.7,0,0,0,10.28-2c3-1.07,5.67-2,8.79-1.58s4.28,1.67,6.9,4.47c2.94,3.14,7,7.45,14.68,8.56,6.9,1,11.93-2.2,16-4.79,5.39-3.42,6.88-3.79,9.36-2.33,2.31,1.37,4.29,4,6.59,7.11,1.29,1.72,2.69,3.6,4.34,5.49Zm112.17,24c0-2.94,2.75-4.83,6.16-4.23s6.21,3.51,6.21,6.47h0Zm27.17,4.34c-1.52-1.83-2.22-3.15-2.22-5.21,0-4.4,3.14-7.81,8-8.65-.59,3.31-1.13,6.43-1.54,9.11a6.24,6.24,0,0,1-4.19,4.75Zm7.66-25c-8.87-.61-16.49,2.83-20.15,9a24.08,24.08,0,0,0-8.52-3.33c-10.18-1.73-18.33,4-18.35,12.71-2.82-.51-5.75-3.82-6-6.81-.58-6.05-2.71-21.66-9.82-43.38,1.26.28,2.48.61,3.87.82,16.41,2.48,23.36-3.07,28.47-7.16,3.67-2.92,5.11-3.84,8.08-3.42,2.52.36,8.33,5.11,12.6,8.62a141.17,141.17,0,0,0,12.66,9.56,207.36,207.36,0,0,1-2.8,23.35Zm25.39-28.32c-7.79,3.2-15.93-2.7-27.36-12-7-5.7-13.6-11-20.49-12-8.66-1.17-13.36,2.63-17.11,5.67-4.5,3.63-8.35,6.75-19.44,5.15-12.49-1.8-16.75-7.46-21.64-14-2.94-3.91-6-7.93-10.72-10.69-9.68-5.61-16.91-1-21.67,2.11-3.06,2-5.93,3.82-8.77,3.43-3.07-.42-4.38-1.69-7.05-4.51-2.95-3.13-7-7.38-14.53-8.37-5.73-.75-10.15.85-13.67,2.13-4.52,1.64-6.65,2.27-10.15.15-9.67-5.88-14-12.8-16-17.42,14.57.52,28.19-2.92,34-4.63,3.58,2.3,10.35,5.45,21.94,6.84,9,1.09,16.51-1.77,23.82-4.57,7.76-3,15.89-6.08,26.78-4.88,13.23,1.46,20.08,5.87,28.1,11a104.72,104.72,0,0,0,17.94,9.8c15.93,6.51,31.72,3.09,39.21.73,11.72,9,30.87,16,40.46,19.19-1.72,16.32-13.09,22.4-23.65,26.75Z" transform="translate(-502 -139.02)"/><path id="path_17"
                                                                                                                                                                                                                                                                                                                                                                                                                                                                                                                                                                                                                                                                                                                                                                                                                                                                                                                                                                                                                                                                                                                                                                                                                                                                                                                                                                                                                                                                                                                                                                                                                                                                                                                                                                                                                                                                                                                                                                                                                                                                                                                                                                                                                                                                                                                                                                                                                                                                                                                                                                                                                                                                                                                                                                                                                                                                                                                                                                                                                                                                                                                                                                                                                                                                                                                                                                                                                                                                                                                                                                                                                                                                                                                                                                                                                                                                                                                                                                                                                                                                                                                                                                                                                                                                                                                                                                                                                                                                                                                                                                                                                                                                                                                                                                                                                                                                                                                                                                                                                                                                                                                                                                                                                                                                                                                                                                                                                                   class="cls-129" d="M890.37,430l11.2.36V420.13c0-9.87-8.79-18-19.49-18.13s-19,7.54-19,17.16v9.95l10.79.34v-10c0-4.15,3.66-7.44,8.2-7.35s8.29,3.56,8.29,7.76h0Z" transform="translate(-502 -139.02)"/><path id="path_18"
                                                                                                                                                                                                                                                                                                                                                                                                                                                                                                                                                                                                                                                                                                                                                                                                                                                                                                                                                                                                                                                                                                                                                                                                                                                                                                                                                                                                                                                                                                                                                                                                                                                                                                                                                                                                                                                                                                                                                                                                                                                                                                                                                                                                                                                                                                                                                                                                                                                                                                                                                                                                                                                                                                                                                                                                                                                                                                                                                                                                                                                                                                                                                                                                                                                                                                                                                                                                                                                                                                                                                                                                                                                                                                                                                                                                                                                                                                                                                                                                                                                                                                                                                                                                                                                                                                                                                                                                                                                                                                                                                                                                                                                                                                                                                                                                                                                                                                                                                                                                                                                                                                                                                                                                                                                                                                                                                                                                                                                                                                                                                                                                                                             class="cls-129" d="M972.48,416.56c10.32.23,18.79-6.86,18.79-15.82s-8.47-16.24-18.79-16.26-18.35,7.08-18.35,15.83S962.3,416.33,972.48,416.56Zm0-21.38c3.43,0,6.21,2.45,6.21,5.42s-2.78,5.32-6.21,5.27-6.16-2.48-6.16-5.42S969.07,395.15,972.48,395.18Z" transform="translate(-502 -139.02)"/></g></g><path class="cls-130" d="M828.76,309.68a16,16,0,0,1-1.18,6.47,11.85,11.85,0,0,1-3.2,4.37,13.3,13.3,0,0,1-4.77,2.53,23.56,23.56,0,0,1-5.9,1l-13.11.54a21.7,21.7,0,0,1-5.74-.47,11.59,11.59,0,0,1-4.58-2.08,10.22,10.22,0,0,1-3-4,15.16,15.16,0,0,1-1.11-6.17v-26.6q0-6.5,3.78-10.19c2.54-2.47,6.09-3.9,10.68-4.26l24.29-1.95c.89-.07,1.34.32,1.34,1.18v4.67a1.27,1.27,0,0,1-1.34,1.39l-24.29,1.82a7.55,7.55,0,0,0-2.27.56,7.32,7.32,0,0,0-2,1.26,6.64,6.64,0,0,0-1.57,2.08,6.5,6.5,0,0,0-.6,2.88v26.75q0,3.32,1.69,4.72a6.72,6.72,0,0,0,4.77,1.28l13.11-.62a7.1,7.1,0,0,0,4.86-1.82,6.83,6.83,0,0,0,1.79-4.9v-9.22l-10.28.59c-.88,0-1.31-.34-1.31-1.19v-4.61a1.23,1.23,0,0,1,1.31-1.36l14.47-.91a4.27,4.27,0,0,1,3,.86,3.08,3.08,0,0,1,1.22,2.51Z" transform="translate(-502 -139.02)"/><path class="cls-130" d="M828.76,323.39q-1.35.06-1.35-1.23v-4.68a1.23,1.23,0,0,1,1.35-1.35l5.43-.25V275.32l-5.43.41c-.9.07-1.35-.33-1.35-1.19V270a1.32,1.32,0,0,1,1.35-1.48l19.53-1.57c.93-.07,1.39.36,1.39,1.28v4.67a1.3,1.3,0,0,1-1.39,1.41l-5.54.42v40.8l5.54-.26c.93,0,1.39.37,1.39,1.25v4.74c0,.88-.46,1.33-1.39,1.37Z" transform="translate(-502 -139.02)"/><path class="cls-130" d="M897.9,269.27c0,.9-.49,1.39-1.48,1.47l-17.78,1.33V320c0,.88-.48,1.35-1.45,1.39l-6.12.25c-1,0-1.43-.38-1.43-1.26V272.74L852.49,274c-.93.07-1.39-.33-1.39-1.21v-4.75a1.3,1.3,0,0,1,1.39-1.42l43.93-3.52c1-.08,1.48.34,1.48,1.24Z" transform="translate(-502 -139.02)"/><path class="cls-130" d="M930.83,260.38c5.52-.44,9.85.48,13,2.79s4.71,5.88,4.71,10.66v7.87a16.07,16.07,0,0,1-1.39,7,13.51,13.51,0,0,1-3.76,4.76,15.67,15.67,0,0,1-5.6,2.93,30.32,30.32,0,0,1-6.93,1.17L907,298.88v19.9c0,.91-.51,1.39-1.51,1.43l-6.35.26c-1,0-1.49-.39-1.49-1.29V277.33q0-6.93,4.61-11c3.09-2.71,8-4.33,14.68-4.87Zm7.81,14.14q0-3.74-2.45-5.16a9,9,0,0,0-5.36-1.2l-13.94,1a14.78,14.78,0,0,0-7.26,2.17,6,6,0,0,0-2.68,5.3v14.55l23.88-1.45q7.8-.48,7.81-7.43Z" transform="translate(-502 -139.02)"/><path class="cls-130" d="M985.74,256q8.89-.71,13.93,2.86t5.05,11V278a16.16,16.16,0,0,1-1.49,7.25,14,14,0,0,1-4,5,17,17,0,0,1-6,3,33.53,33.53,0,0,1-7.44,1.23l-25.62,1.42v20.62c0,.94-.54,1.43-1.61,1.48l-6.82.28c-1.06,0-1.59-.4-1.59-1.34V273.63c0-4.79,1.64-8.57,4.94-11.37s8.55-4.51,15.74-5.08Zm8.38,14.63q0-3.87-2.63-5.34a9.92,9.92,0,0,0-5.75-1.23l-15,1.12a16.36,16.36,0,0,0-7.78,2.26,6.17,6.17,0,0,0-2.88,5.5V288l25.62-1.56q8.37-.51,8.38-7.71Z" transform="translate(-502 -139.02)"/><path class="cls-130" d="M1044.46,251.28c6.37-.51,11.38.44,15,2.88s5.44,6.27,5.44,11.47v32a16.35,16.35,0,0,1-1.61,7.55,14.28,14.28,0,0,1-4.35,5.13,19.58,19.58,0,0,1-6.47,3,37.34,37.34,0,0,1-8,1.17l-18.84.78a34.49,34.49,0,0,1-7.74-.5,16.58,16.58,0,0,1-6.15-2.38,11.93,11.93,0,0,1-4.08-4.59,15.34,15.34,0,0,1-1.5-7.14V269.77q0-7.53,5.09-11.87t14.38-5.11Zm9,15.15q0-3.92-2.72-5.49a10.65,10.65,0,0,0-6.3-1.3l-18.84,1.41a11.34,11.34,0,0,0-6.21,2.2,6.81,6.81,0,0,0-2.5,5.76v31.05a5.82,5.82,0,0,0,2.71,5.39,10.35,10.35,0,0,0,6,1.51l18.84-.88a11.57,11.57,0,0,0,6.41-2.07,6.73,6.73,0,0,0,2.61-5.82Z" transform="translate(-502 -139.02)"/></g></g><g id="사람_그림자"><g class="cls-131"><ellipse id="여자" class="cls-132" cx="687.98" cy="666.23" rx="41.07" ry="18.22" transform="translate(-659.57 77.5) rotate(-16.07)"/><ellipse id="남자" class="cls-133" cx="564.54" cy="670.39" rx="57.61" ry="21.92" transform="translate(-590.45 -53.21) rotate(-8.06)"/></g></g><g id="남자-2"><rect class="cls-134" x="47.84" y="207.47" width="23.29" height="27.7"/><path class="cls-135" d="M573.13,346.5V355c-5.79,4.69-13.62,7.86-23.29,8.52v-17Z" transform="translate(-502 -139.02)"/><path class="cls-134" d="M573.77,342.76a4.49,4.49,0,0,0,3.13-.4,10.82,10.82,0,0,0,2.54-1.92c2-1.94,3.88-4.39,3.74-7.12a3.4,3.4,0,0,0-1.08-2.47,3.27,3.27,0,0,0-3.2-.41,5.46,5.46,0,0,0-2.5,2.15Z" transform="translate(-502 -139.02)"/><path class="cls-134" d="M548.6,342.76a4.49,4.49,0,0,1-3.13-.4,10.82,10.82,0,0,1-2.54-1.92c-2-1.94-3.88-4.39-3.74-7.12a3.43,3.43,0,0,1,1.07-2.47,3.29,3.29,0,0,1,3.21-.41,5.56,5.56,0,0,1,2.5,2.15Z" transform="translate(-502 -139.02)"/><path class="cls-134" d="M577.89,344.08c.79-8.56,3-13.56,4.41-18.51,1-3.71,2-10.05-2.33-15.63-4.26-5.81-15-9.1-24.75-6.33s-15.33,8.55-14.13,15.11c.6,3.93,1.17,9.37,1.82,13.42.55,3.37-.48,6.75.77,10C546,347.82,555,357.73,562,357.73,567.81,357.73,577.34,347.82,577.89,344.08Z" transform="translate(-502 -139.02)"/><path class="cls-136" d="M563.27,335.9a3,3,0,0,1-.21.48.88.88,0,0,1-.32.39c-.14.08-.36,0-.53-.22a1,1,0,0,1-.17-.47,1.37,1.37,0,0,1,.39-1.11,1,1,0,0,1,.42-.25c.29-.08.49,0,.55.17a1,1,0,0,1,0,.51A3.12,3.12,0,0,1,563.27,335.9Z" transform="translate(-502 -139.02)"/><path class="cls-135" d="M561.48,336.49c0-.12-.05-.23-.07-.32s0-.18,0-.26a1.32,1.32,0,0,1,0-.29l0-.36a3.58,3.58,0,0,0,.06-.71.72.72,0,0,0-.19-.51.29.29,0,0,0-.38,0,1.67,1.67,0,0,0-.42.53,2.59,2.59,0,0,0-.34,1.06,2,2,0,0,0,0,.65,2.67,2.67,0,0,0,.21.62,5.1,5.1,0,0,0,.31.52c.12.16.24.3.35.42a5.15,5.15,0,0,0,.63.58c.36.28.58.38.7.19s.11-.41-.09-.74c-.1-.16-.24-.35-.4-.58a2.31,2.31,0,0,1-.39-.79Z" transform="translate(-502 -139.02)"/><path class="cls-137" d="M567.5,327.69a8.42,8.42,0,0,1,5.71.75c.88.46.49,1.35-.38,1.14a24.1,24.1,0,0,0-2.59-.5,25.43,25.43,0,0,0-2.63-.19C566.72,328.87,566.54,327.92,567.5,327.69Z" transform="translate(-502 -139.02)"/><path class="cls-137" d="M555.7,327.62a8.18,8.18,0,0,0-2.92-.08,8.39,8.39,0,0,0-2.78.94c-.86.48-.46,1.36.41,1.13a26.37,26.37,0,0,1,2.58-.55,22.57,22.57,0,0,1,2.62-.24C556.51,328.78,556.66,327.82,555.7,327.62Z" transform="translate(-502 -139.02)"/><path class="cls-137" d="M554.79,334.91v-2.27a2,2,0,0,0-2-2h0a2,2,0,0,0-2,2l0,2.28C550.81,336,554.8,336,554.79,334.91Z" transform="translate(-502 -139.02)"/><path class="cls-137" d="M568.49,334.91v-2.27a2,2,0,0,1,2-2h0a2,2,0,0,1,2,2v2.28C572.47,336,568.48,336,568.49,334.91Z" transform="translate(-502 -139.02)"/><path class="cls-138" d="M557.36,343.61a10.42,10.42,0,0,0,10.33-1.48c.44-.35-.19-1-.63-.62a9.56,9.56,0,0,1-9.47,1.25.44.44,0,0,0-.54.31.45.45,0,0,0,.31.54Z" transform="translate(-502 -139.02)"/><path class="cls-139" d="M605.5,375.93c2.54,2,6.92,6.07,7.18,8.26s8.59,60.33,9.11,64.1c1,7.55-23-.2-23.94-5.13s-11-40.77-11-40.77l9.71-28.47S602.82,373.84,605.5,375.93Z" transform="translate(-502 -139.02)"/><path class="cls-140" d="M592.36,461.47c6.1,37.47.82,106.53-.76,116.7s-22.83-6.7-23.52-17.06c-.24-3.73.74-7.43.74-11.16,0-3.3-1.43-6.47-1.49-9.78-.47-28.89-6.17-32.95-10.3-50.76l-6.68-27.94Z" transform="translate(-502 -139.02)"/><path class="cls-77" d="M529.61,677.12c4.52-2.16,8.5-4.44,9.62-6.76l.5-20.52c.17-1.53.5-3.4-1-3.6L532,645.3a2.64,2.64,0,0,0-2.92,2c-.76,2.83-3.41,12.19-3.41,12.19l-13.24,13c-1.34,1.33-2.77,2.68-2.91,4.61C509.48,677.18,529.61,677.12,529.61,677.12Z" transform="translate(-502 -139.02)"/><path class="cls-137" d="M539.59,655.26c-.42-.07,1.11,11-3.92,11.79a6.37,6.37,0,0,1-1,.08l-.39-4.66s-7.15-3.3-12.5-2.88l-1.24,2.54-15.22,8.38c-1.26,1.24-3.16,3.12-3.34,5.7a2.1,2.1,0,0,0,.44,1.23H540.9S540,655.32,539.59,655.26Z" transform="translate(-502 -139.02)"/><path class="cls-77" d="M606.36,677.05a18.87,18.87,0,0,0-2-4.59l-10.06-13.18s-1.26-8.52-1.6-11.09a2.4,2.4,0,0,0-2.33-2.11l-6-.11a2.42,2.42,0,0,0-2.42,2.42L581.32,667a95,95,0,0,0,4.07,10Z" transform="translate(-502 -139.02)"/><path class="cls-137" d="M605.41,671.65l-6.8-8.91-.94-2.83c-4.61-1.08-11.19.82-11.19.82l-.86,4a5.73,5.73,0,0,1-.84-.21c-4.28-1.4-2.91-8.73-3.29-8.73s-4.87,21.63-4.87,21.63h31c0-.12,0-.24,0-.36C607.81,674.8,606.37,672.91,605.41,671.65Z" transform="translate(-502 -139.02)"/><path class="cls-140" d="M531.27,459.33C525,496.8,528.11,565.87,529.73,576s23.33-6.69,24-17.06c.25-3.72-.75-7.43-.76-11.16a41.94,41.94,0,0,1,1.53-9.78c4.22-17.81,13.13-35.63,17.35-53.45V459.33Z" transform="translate(-502 -139.02)"/><path class="cls-140" d="M525.83,652.67c-.26-14.76,0-29.52.24-44.28q.2-11.13.38-22.25c.18-10.45.79-21,4.64-30.88,1.14-3,19.63-10.54,21.91-7.45,0,0,1.54,14.54,2.5,21.12.64,4.33-.22,8.72-1.08,13-4.67,23.37-7.11,47.34-11.77,70.72Z" transform="translate(-502 -139.02)"/><path class="cls-140" d="M595.78,653.86c.26-14.76-.36-28.58-.61-43.34q-.18-11.12-.37-22.24c-.17-10.45-.77-21-4.53-30.89-1.13-2.94-19.21-10.53-21.45-7.44,0,0-1.5,14.53-2.45,21.12-.62,4.33.23,8.71,1.07,13,4.56,23.37,6.74,46.45,11.3,69.83Z" transform="translate(-502 -139.02)"/><path class="cls-141" d="M545.19,474.92h-1.34c-3.47,0-13.79-3-15.29-5.37,3.85-19.88,1.51-31.85-.75-43.44-1.28-6.52-2.73-20.64-2.73-20.64-1.39-2.61-3-22.11-1.81-30.15l25.55-10.74,11.82,3.54H563l11.83-3.54,25.54,10.74c1.19,8-.42,27.54-1.81,30.15,0,0-1.79,14.46-3.42,21-2.76,11.13-5.61,22.64-1.74,42.32l0,.08c-.77,1.16-6.52,4.14-9.32,4.58C575.14,474.9,546.4,474.92,545.19,474.92Z" transform="translate(-502 -139.02)"/><polygon class="cls-142" points="64.33 240.01 68.79 235.68 66.14 228.43 59.84 227.87 53.53 228.43 50.88 235.68 55.34 240.01 48.35 308.02 59.84 321.45 71.32 308.02 64.33 240.01"/><polygon class="cls-143" points="72.12 219.7 59.84 227.87 64.33 228.79 67.93 247.44 79.92 228.58 72.12 219.7"/><polygon class="cls-143" points="47.56 219.7 59.84 227.87 55.34 228.79 51.74 247.44 39.76 228.58 47.56 219.7"/><path class="cls-139" d="M518.32,375.6c-2.54,2-6.92,6.07-7.18,8.26s-5.86,48.45-7.31,61.15c-.9,12.25,22.27,12.38,23.69,9s9.41-51.95,9.41-51.95l-9.71-28.47S521,373.51,518.32,375.6Z" transform="translate(-502 -139.02)"/><path class="cls-139" d="M603.44,374.89,580,365.41,572.79,421l-.91,69.11c9,6.14,25.58,4,27.4,1.72s-1.15-17.79-1.53-20.76c-4.07-31.46,1.92-65,1.92-65S604.83,382.51,603.44,374.89Z" transform="translate(-502 -139.02)"/><path class="cls-139" d="M551.8,420.53l-8.11-55.12-22.81,9C519.49,382,524,406,524,406s7.93,33,2.85,64c-.23,2.71-3.38,19.6-2.07,21.48s20.9,6.21,28.88.93Z" transform="translate(-502 -139.02)"/><path class="cls-144" d="M576.55,323.69a7.23,7.23,0,0,1-2.5-.61c-2.06-.95-4.33-1.57-5.46-3.37-1.53-2.42-.05-5.78-2.24-6.44-3.48-1.06-10.4,2.19-13.49.41a5,5,0,0,1-1.6-1.48,14,14,0,0,1-2.89,2.8c-1.9,1.49-4,3.2-4.12,5.45-.08,1.39.62,2.7,1,4.05.72,2.55-1.32,10.19-1.32,10.19a38.27,38.27,0,0,1-3.44-6.56c-.63-1.9-.33-4-.8-5.9-.5-2.09-1.88-4-2.31-6.05a7.39,7.39,0,0,1,2.28-6.72,14.72,14.72,0,0,1,0-3.51,9,9,0,0,1,3.65-6.51,7.57,7.57,0,0,1,7-.85c3.85-3.32,8.38-6.34,13.56-5.82,4.66.47,8.3,3.72,12.59,5.41,2.51,1,5.25,1.44,7.79,2.38s5,2.51,5.86,4.84a4.43,4.43,0,0,1-.35,3.64,3.8,3.8,0,0,1,1.5,2.1c.44,1.8-.38,3.66-1.35,5.28s-5.19,3.8-5.52,5.62c-.37,2.06-4,12.65-4,12.65l-2.48-11A6.29,6.29,0,0,1,576.55,323.69Z" transform="translate(-502 -139.02)"/><path class="cls-134" d="M615.32,452.28c.23-1.54-4.92-16.39-11-18.5S540,425.61,540,425.61s-3,5.05-2,9c0,0,43,14.52,48.62,16.27S615.09,453.82,615.32,452.28Z" transform="translate(-502 -139.02)"/><path class="cls-134" d="M542.52,426.39s-11.71-4.72-12.47-5.11v17l10.79-3.64Z" transform="translate(-502 -139.02)"/><path class="cls-139" d="M549.22,423.32l-3.72,17.23s38.83,12,54.76,15.35,22.67-2.65,21.32-8.1a21.8,21.8,0,0,0-15.84-15.92C595.87,429.46,549.22,423.32,549.22,423.32Z" transform="translate(-502 -139.02)"/><path class="cls-134" d="M512.11,452.91c.06-1.56,5-19.13,11.45-20.07s71.67,8.69,71.67,8.69-2.91,9-5.3,9.94c0,0-32.71,1.24-44.35,2.66C539.68,454.86,512.05,454.46,512.11,452.91Z" transform="translate(-502 -139.02)"/><path class="cls-134" d="M585,450.39c3.54,1.92,7.59,2.41,11.41,3.49,1.55.44,3.41.8,4.51-.28a4.55,4.55,0,0,0,1-2.4c.57-2.81-1.87-6.84-1.29-10.51.4-2.58.54-8.05-.78-7.9-3.48.4-9.17,6-12.83,7.86a3.09,3.09,0,0,0-1.27,1.19C584.5,443.84,582,448.75,585,450.39Z" transform="translate(-502 -139.02)"/><path class="cls-134" d="M599.72,443a33.67,33.67,0,0,0,9.13-.76c1.83-.44,3.84-2,9.36-5.32,2-1.23-.74-2.74-2.92-1.75a36.64,36.64,0,0,1-6.66,2.69c-3.26,1.06-6.29-.3-9.51.19C597,438.34,597.52,442.92,599.72,443Z" transform="translate(-502 -139.02)"/><path class="cls-134" d="M600,447.13c5.2-.36,7,.2,10.31-.66,2.52-.66,3.75-1.7,7.79-3.23,2.78-1.06,1.07-4.11-1.7-3.06-4.13,1.58-5.59,2.17-5.59,2.17-4.23,1.18-8.64.16-12.94.81C595,443.6,597.05,447.34,600,447.13Z" transform="translate(-502 -139.02)"/><path class="cls-134" d="M599.69,450.44c4.41.84,8.61,1.2,10.71.85,1-.16,5.05-1.81,6.18-2.2a9.93,9.93,0,0,0,3.1-1.87c.76-.87-.22-2.32-1.42-2-1.41.33-5.92,1.95-9,2.46-4.33.74-6.86-1.59-11.19-1.37C595.19,446.41,596.79,449.89,599.69,450.44Z" transform="translate(-502 -139.02)"/><path class="cls-134" d="M598.18,454.31a35.07,35.07,0,0,0,7,.41c.79,0,3.67-.48,5.46-.54,1,0,3.64-.53,3.64-.53a1.1,1.1,0,0,0-.86-1.85c-1.15.06-3.31.22-5.8.16-3.53-.08-6.82-1.73-10.29-2.29C595,449.3,595.83,453.93,598.18,454.31Z" transform="translate(-502 -139.02)"/><path class="cls-134" d="M598.59,441.9c1.6-3.18,2.54-5.35,4-5.9a33.65,33.65,0,0,0,4.74-2,4.78,4.78,0,0,0,2-3.13c.2-2.32-4-.77-7.23-.17a8.9,8.9,0,0,0-5,2.44c-1.37,1.32-6.07,6-6.07,6Z" transform="translate(-502 -139.02)"/><path class="cls-139" d="M581.92,454.48l3.74-17.8s-57.86-6.33-62.8-6.94-13.12,5.85-14.17,12.37-.21,11.81,6.5,13.25S581.92,454.48,581.92,454.48Z" transform="translate(-502 -139.02)"/></g><g id="여자-2"><path class="cls-141" d="M721.25,395.5c-2.26-2.36-5.87-27-5.87-27H672.16s-3.61,24.61-5.87,27c-8.07,8.46,1.52,19.95,4.6,24.78,2.57,8.43-4.55,21.77.18,27.55,3.45,4.22,2.6,10.64,2.6,10.64a142.75,142.75,0,0,0,20.1,2,142.75,142.75,0,0,0,20.1-2s0-7.26,3.24-11.48-2.37-13.94-.05-21.52C720.14,420.64,729.32,404,721.25,395.5Z" transform="translate(-502 -139.02)"/><path class="cls-145" d="M671.66,364.73l38.35-.65,3.44-27.7s-3.4-16.36-19.06-16.91-20.1,11.42-20.54,16.91S671.66,364.73,671.66,364.73Z" transform="translate(-502 -139.02)"/><path class="cls-134" d="M641.4,428.88c-1.12-1.62-2.65-6.65-2.22-9.36s15.4-30.95,15.4-30.95,13,5.84,12.87,11.66c0,0-14.84,28.63-16.13,29.19S642.59,430.6,641.4,428.88Z" transform="translate(-502 -139.02)"/><path class="cls-141" d="M668.78,369c-2.73.87-6.47,1.72-7.36,3.46S647,399.17,641.89,409.29c2.48,6.71,11.15,9,17.9,11.43,4.82-7.44,9.53-19.59,13.52-28.08L678,368.89S671.65,368.11,668.78,369Z" transform="translate(-502 -139.02)"/><path class="cls-134" d="M738.63,432.47c1.29-1.49,3.33-6.34,3.19-9.08S729.74,391,729.74,391s-13.58,4.45-14,10.26c0,0,11.76,30,13,30.71S737.27,434.06,738.63,432.47Z" transform="translate(-502 -139.02)"/><path class="cls-141" d="M717,369c2.62,1.15,6.91,3.45,7.61,5.27s13.17,28.78,17.21,39.38c-3.18,6.41-13.67,7.11-20.63,8.77,0,0-7.43-20.48-10.51-29.33L708.55,369S714.25,367.8,717,369Z" transform="translate(-502 -139.02)"/><path class="cls-146" d="M661.75,612.41c.18,14.93.36,29.9.27,33.44l8.22.37c1.53-10.15,3.53-22.23,5.55-33.81Z" transform="translate(-502 -139.02)"/><path class="cls-147" d="M672.92,646.52c0-4.5-2.92-5.44-2.92-5.44l-9.43,3.7s-15.52,31.4-13.18,32.1l16.77.45c4.84.11,3.58-7.57,5.45-11.64l-.09,11.75h2.11l1-16.37a9.42,9.42,0,0,0,.31-1.43C673.16,657.71,673,652.54,672.92,646.52Z" transform="translate(-502 -139.02)"/><path class="cls-146" d="M662.11,640.19c-.82,2.31-4.35,11.22-5.25,14-.71,2.19-2.3,7.11-3.33,10.33a2.38,2.38,0,0,0,2.19,3.12l9.94.21L670.9,643c.09-.73.15-4.52-1.44-5.46S662.93,637.88,662.11,640.19Z" transform="translate(-502 -139.02)"/><path class="cls-146" d="M709.76,617.76H698.67c.61,11.49,1.13,23,1.36,26.61l8.25.36A104.62,104.62,0,0,1,709.76,617.76Z" transform="translate(-502 -139.02)"/><path class="cls-147" d="M709.55,641.49s5.73,22.13,6.53,25.77-.51,8.81-1.77,10.18H698.25c-2.59-.76,1.73-34.62,1.73-34.62Z" transform="translate(-502 -139.02)"/><path class="cls-146" d="M699.88,637.87c0,2.48-.35,12.09-.24,15.15.12,3.66.46,14.39.46,14.39s9.4.66,10.55-.46c3.29-3.19,1.82-9.87,1.82-9.87l-2.79-16.15c-.17-.79-1.47-4.87-3.39-5.89S699.88,635.38,699.88,637.87Z" transform="translate(-502 -139.02)"/><rect class="cls-134" x="179.3" y="212.78" width="22.87" height="27.2"/><path class="cls-135" d="M704.17,351.8v8.37c-5.69,4.6-13.37,7.71-22.87,8.36V351.8Z" transform="translate(-502 -139.02)"/><path class="cls-143" d="M692.72,379,703,371.2l1.29-6.64s2.27,2.89,2.34,4.55,0,17.68,0,17.68-6.25-5.87-7.49-6.87S692.72,379,692.72,379Z" transform="translate(-502 -139.02)"/><path class="cls-143" d="M692.75,379l-10.29-7.8-1.29-6.64s-2.27,2.89-2.34,4.55,0,17.68,0,17.68,6.25-5.87,7.49-6.87S692.75,379,692.75,379Z" transform="translate(-502 -139.02)"/><path class="cls-139" d="M671.07,447.83S658.63,481,658.74,487.45,658,545,658,545s18.41,15.29,25.58,4.62c3.87-5.75,3.91-54.31,3.91-54.31l11.38-5.15-2.21-40.89Z" transform="translate(-502 -139.02)"/><path class="cls-139" d="M657.55,635.47s17.34,5.56,18.65,0,4-57.87,5.61-69.33,4.28-26.1,3.36-31.34-26-4.07-26.58,3.08-2.88,19.62-2.79,26.56S657.55,635.47,657.55,635.47Z" transform="translate(-502 -139.02)"/><path class="cls-139" d="M717.65,447.9s9.21,37.93,8.43,44.38-5.54,52.83-5.54,52.83-20,15.29-26.07,4.61c-3.26-5.75,2.18-61.62,2.18-61.62l-8.8.07,4.06-38.79Z" transform="translate(-502 -139.02)"/><path class="cls-139" d="M711.49,635.54s-17.92,5.56-18.64,0,2-57.87,1.66-69.33-1.55-26.1-.07-31.35,26.39-4.06,26.25,3.09.82,19.61,0,26.56S711.49,635.54,711.49,635.54Z" transform="translate(-502 -139.02)"/><path class="cls-134" d="M649.42,420.72c1.12-.14,6.53,5.57,8.46,9.41s5.81,34.2,5.81,34.2-1.14,4.47-3.35,5.73c0,0-21.19-39.92-21-47.11C639.46,419,648.31,420.86,649.42,420.72Z" transform="translate(-502 -139.02)"/><path class="cls-134" d="M662.82,457.31l4.38,4s2.06.56,4.94,1.15,1,3.89-4.66,2.8l1.37,3.11s-2.93,9.23-5.72,8.52c0,0-4.31-8.27-5.14-13S661.53,456.13,662.82,457.31Z" transform="translate(-502 -139.02)"/><path class="cls-134" d="M732.59,420.72c-1.12-.14-5.47,5.39-7.4,9.23s-6.87,34.38-6.87,34.38,1.15,4.47,3.36,5.73c0,0,20.82-31.55,19.82-44C741.19,422.11,733.71,420.86,732.59,420.72Z" transform="translate(-502 -139.02)"/><path class="cls-134" d="M719.2,457.31l-4.38,4s-2.06.56-4.94,1.15-1,3.89,4.66,2.8L713.43,469s6.22,8.59,9,7.88c0,0,.76-8.23,1.59-12.94S720.49,456.13,719.2,457.31Z" transform="translate(-502 -139.02)"/><path class="cls-148" d="M718.32,447.12s-30.83,2.16-48.23,0l-1.64,6.18a94.22,94.22,0,0,0,51.12,0Z" transform="translate(-502 -139.02)"/><rect class="cls-149" x="186.51" y="308.1" width="11.17" height="10.1" rx="4.93"/><path class="cls-150" d="M713.47,325.73a37.69,37.69,0,0,0,0,4.87,20.88,20.88,0,0,0,.31,2.36,8.1,8.1,0,0,0,.56,2,10.34,10.34,0,0,0,2.2,2.56,6.71,6.71,0,0,1,1,1.27,5.17,5.17,0,0,1,.52,1.77,9.55,9.55,0,0,1-.23,4.12,10.53,10.53,0,0,1-1.93,3.69,7.66,7.66,0,0,0-1.86,3.59,8.34,8.34,0,0,0,1,4.45c.67,1.46,1.55,3,1.58,4.61a3.28,3.28,0,0,1-1.71,3.18c-.51.22-.07,1,.43.74a3.78,3.78,0,0,0,2-2.74,6.82,6.82,0,0,0-.57-4,28.47,28.47,0,0,1-1.76-4.33,4.68,4.68,0,0,1,0-2.35,6.24,6.24,0,0,1,1-1.85,17.47,17.47,0,0,0,2.25-3.55,10.41,10.41,0,0,0,.8-4.16,7.16,7.16,0,0,0-.9-3.83,24.75,24.75,0,0,0-2.36-2.55A3.85,3.85,0,0,1,715,334a17.61,17.61,0,0,1-.51-2.7,34.92,34.92,0,0,1-.12-5.6c0-.56-.84-.55-.86,0Z" transform="translate(-502 -139.02)"/><path class="cls-134" d="M705.41,348.66a4.35,4.35,0,0,0,3.06-.39,10.06,10.06,0,0,0,2.47-1.87c2-1.89,3.79-4.28,3.65-6.95a3.34,3.34,0,0,0-1.05-2.41,3.21,3.21,0,0,0-3.13-.4,5.39,5.39,0,0,0-2.43,2.1Z" transform="translate(-502 -139.02)"/><path class="cls-134" d="M680.85,348.66a4.35,4.35,0,0,1-3.06-.39,10.45,10.45,0,0,1-2.47-1.87c-2-1.89-3.79-4.28-3.65-6.95a3.34,3.34,0,0,1,1.05-2.41,3.21,3.21,0,0,1,3.13-.4,5.39,5.39,0,0,1,2.43,2.1Z" transform="translate(-502 -139.02)"/><path class="cls-134" d="M709.43,350c.78-8.36,3-13.24,4.3-18.07,1-3.62,1.94-8.63-2.27-14.08-4.15-5.67-14.59-8.88-24.14-6.18s-17,8.91-15.85,15.31c.59,3.84,3.19,7.41,3.83,11.36.53,3.29-.47,6.59.75,9.79,2.26,5.52,11,15.18,17.91,15.18C699.59,363.27,708.89,353.6,709.43,350Z" transform="translate(-502 -139.02)"/><path class="cls-150" d="M698.68,334.6a7.06,7.06,0,0,1,2.59-.12,7.31,7.31,0,0,1,2.49.78,5.93,5.93,0,0,1,2,1.69c-.84-.25-1.61-.49-2.38-.68a23.28,23.28,0,0,0-2.3-.44,22.6,22.6,0,0,0-2.34-.17C698,335.64,697.83,334.8,698.68,334.6Z" transform="translate(-502 -139.02)"/><path class="cls-150" d="M687.41,334.45a7.27,7.27,0,0,0-2.59-.07,7.36,7.36,0,0,0-2.48.84,6,6,0,0,0-2,1.73c.82-.27,1.59-.53,2.36-.73a18.28,18.28,0,0,1,2.29-.48,20,20,0,0,1,2.33-.23C688.13,335.48,688.26,334.63,687.41,334.45Z" transform="translate(-502 -139.02)"/><path class="cls-136" d="M694.91,343.33a2.37,2.37,0,0,1-.2.46.91.91,0,0,1-.32.38c-.14.08-.35,0-.51-.22a.87.87,0,0,1-.17-.46,1.32,1.32,0,0,1,.07-.58,1.37,1.37,0,0,1,.31-.49,1,1,0,0,1,.41-.25c.28-.08.48,0,.54.17a.85.85,0,0,1,0,.5A2.38,2.38,0,0,1,694.91,343.33Z" transform="translate(-502 -139.02)"/><path class="cls-135" d="M693.16,343.89c0-.11,0-.21-.06-.3s0-.18-.05-.26a2.35,2.35,0,0,1,0-.28c0-.11,0-.23,0-.35a4.41,4.41,0,0,0,.06-.7.69.69,0,0,0-.19-.49.28.28,0,0,0-.37,0,1.63,1.63,0,0,0-.41.52,2.6,2.6,0,0,0-.33,1,2.3,2.3,0,0,0,0,.64,2.76,2.76,0,0,0,.22.59,3.11,3.11,0,0,0,.3.51,2.39,2.39,0,0,0,.34.41,4.35,4.35,0,0,0,.61.57c.36.28.57.38.69.19s.1-.4-.1-.72c-.09-.16-.23-.34-.38-.57a3.17,3.17,0,0,1-.23-.36A2.61,2.61,0,0,1,693.16,343.89Z" transform="translate(-502 -139.02)"/><path class="cls-137" d="M687.06,342v-2.27a2,2,0,0,0-2-2h0a2,2,0,0,0-2,2l0,2.27C683.08,343.07,687.06,343.05,687.06,342Z" transform="translate(-502 -139.02)"/><path class="cls-137" d="M685.51,337.77a3.72,3.72,0,0,0-2.68.56,2.08,2.08,0,0,1-2.11.39,2.13,2.13,0,0,0,2.28.4,2.44,2.44,0,0,1,1.85-.34Z" transform="translate(-502 -139.02)"/><path class="cls-137" d="M699.41,342l0-2.27a2,2,0,0,1,2-2h0a2,2,0,0,1,2,2V342C703.39,343.07,699.41,343.05,699.41,342Z" transform="translate(-502 -139.02)"/><path class="cls-137" d="M701,337.77a3.72,3.72,0,0,1,2.68.56,2.1,2.1,0,0,0,2.12.39,2.14,2.14,0,0,1-2.28.4c-1.25-.6-1.85-.34-1.85-.34Z" transform="translate(-502 -139.02)"/><path class="cls-150" d="M714.5,363.82a3.11,3.11,0,0,0,.06,1c-3.17,0-6.36.11-9.54.37a.77.77,0,0,1,0-.15,6.39,6.39,0,0,1,1.48-2.23,5.74,5.74,0,0,0,1.18-4c-.18-1.76-1.24-3.39-.92-5.16.5-2.82,3.78-4.92,3.21-7.65-.29-1.44-1.78-2.37-2-3.82-.43-2.29,1.76-4.2,2.38-6.52a4.87,4.87,0,0,0-.75-3.88c-2.28,0-7.13.29-7.1-.06.24-2.38.11-6.18-.84-8.3-1,2.39-1.52,8.3-1.86,8.5a1,1,0,0,1-.55.1l-21.75.11a2.77,2.77,0,0,0-.11.48c-.31,1.86.44,3.63,1,5.37s.84,3.79-.24,5.4a25.37,25.37,0,0,1-2.15,2.26,5.31,5.31,0,0,0-.3,6.57c.66.83,1.64,1.5,1.82,2.57.24,1.37-1,2.64-1.53,4a4.63,4.63,0,0,0,.45,4.51,5.15,5.15,0,0,1,1,1.45,1.53,1.53,0,0,1,.08.52H662.24a5.16,5.16,0,0,1,.6-1.33c.72-1.16,1.61-2.56,1-3.68-.25-.44-.71-.73-1-1.15-1-1.35.06-3.32,1.24-4.66s2.62-2.8,2.5-4.5c-.1-1.39-1.23-2.39-2-3.54a7.1,7.1,0,0,1,.44-7.81c1.28-1.74,3.33-3,4-5,2.51-7.78.83-13.67,8.84-18.84,8.71-5.62,14.13-9.13,23.57-4.47,6,3,14.68,8.57,14.24,15.06a35.31,35.31,0,0,0,.51,8c.5,3.17,3.92,5.49,3.39,8.73-.5,3-4.14,4.82-5,7.76-1,3.56,2.39,7,1.36,10.56-.31,1.07-1,2-1.3,3.1A2.77,2.77,0,0,0,714.5,363.82Z" transform="translate(-502 -139.02)"/><path class="cls-116" d="M695.57,348.68a11.67,11.67,0,0,0,4.26-1.61c-1.12,2.08-2.25,4.07-5.43,4.41s-4.79-1.29-5.45-3.56A11.9,11.9,0,0,0,695.57,348.68Z" transform="translate(-502 -139.02)"/></g></g></g></svg>